<?xml version="1.0" encoding="UTF-8" standalone="no"?>
<!DOCTYPE svg PUBLIC "-//W3C//DTD SVG 1.1//EN" "http://www.w3.org/Graphics/SVG/1.1/DTD/svg11.dtd">
<svg width="100%" height="100%" viewBox="0 0 726 856" version="1.1" xmlns="http://www.w3.org/2000/svg" xmlns:xlink="http://www.w3.org/1999/xlink" xml:space="preserve" xmlns:serif="http://www.serif.com/" style="fill-rule:evenodd;clip-rule:evenodd;stroke-linejoin:round;stroke-miterlimit:2;">
    <g transform="matrix(1,0,0,1,-277.465,-157.465)">
        <g transform="matrix(1,0,0,1,0,-1180)">
            <g transform="matrix(0.983871,0,0,1.01282,-300,1218.21)">
                <path d="M1300.98,169.62L609.836,140L660.656,939.747L1250.16,920L1300.98,169.62Z" style="fill:rgb(88,141,160);"/>
                <clipPath id="_clip1">
                    <path d="M1300.98,169.62L609.836,140L660.656,939.747L1250.16,920L1300.98,169.62Z"/>
                </clipPath>
                <g clip-path="url(#_clip1)">
                    <g transform="matrix(1.01639,0,0,0.987342,-41.064,7.46463)">
                        <path d="M650,280C650,280 653.415,258.231 660,250C666.667,241.667 678.248,232.518 690,230C713.333,225 768.333,216.667 800,220C828.324,222.981 890.786,247.058 880,250C858,256 847.747,265.55 830,280C797.105,306.784 773.7,330.82 760,350C743.333,373.333 730,420 730,420L700,610L685.402,879.235" style="fill:rgb(80,128,146);"/>
                    </g>
                    <g transform="matrix(1.01639,0,0,0.987342,-10.1639,21.519)">
                        <path d="M1260,620C1260,620 1216.67,738.333 1180,780C1143.35,821.648 1093.17,854.162 1040,870C961.667,893.333 710,920 710,920C710,920 1243.98,910.259 1240,910" style="fill:rgb(80,128,146);"/>
                    </g>
                    <g transform="matrix(1.01639,0,0,0.987342,-10.1639,21.519)">
                        <path d="M1260,680C1260,680 1230,803.333 1200,840C1171.68,874.612 1080,900 1080,900C1030,903.333 780,920 780,920L1240,913" style="fill:rgb(73,117,133);"/>
                    </g>
                </g>
                <path d="M1308.66,170.111L1309.17,162.493L1301.32,162.156C1301.32,162.156 1128.57,153.958 955.807,146.068C783.042,138.178 610.263,130.597 610.263,130.597L599.502,130.136L600.165,140.58C600.165,140.58 606.966,246.106 616.095,380.463C632.099,615.979 654.986,940.087 654.986,940.087L655.327,945.446L660.851,945.261C660.851,945.261 808.189,939.307 955.555,933.956C1102.92,928.606 1250.3,923.859 1250.3,923.859L1253.89,923.739L1254.13,920.253C1254.13,920.253 1263.96,779.63 1275.51,620.169C1290.64,411.297 1308.66,170.111 1308.66,170.111ZM1292.84,176.785C1290.25,219.426 1277.26,432.457 1265.48,619.528C1256.35,764.397 1247.9,893.69 1246.43,916.266C1223.01,917.076 1089.14,921.682 955.265,925.791C824.728,929.796 694.179,933.328 666.024,934.083C663.596,891.14 646.957,597.312 634.069,379.385C627.595,269.926 622.009,179.621 620.157,149.852C660.444,151.531 807.723,157.654 955.013,163.552C1106.17,169.605 1257.33,175.422 1292.84,176.785L1292.84,176.785Z" style="fill:rgb(58,66,89);"/>
            </g>
        </g>
    </g>
</svg>
