<?xml version="1.0" encoding="UTF-8" standalone="no"?>
<!DOCTYPE svg PUBLIC "-//W3C//DTD SVG 1.1//EN" "http://www.w3.org/Graphics/SVG/1.1/DTD/svg11.dtd">
<svg width="100%" height="100%" viewBox="0 0 410 468" version="1.1" xmlns="http://www.w3.org/2000/svg" xmlns:xlink="http://www.w3.org/1999/xlink" xml:space="preserve" xmlns:serif="http://www.serif.com/" style="fill-rule:evenodd;clip-rule:evenodd;stroke-linejoin:round;stroke-miterlimit:2;">
    <g transform="matrix(1,0,0,1,-1340,0)">
        <g id="アートボード2" transform="matrix(0.854167,0,0,0.754839,195.417,0)">
            <rect x="1340" y="0" width="480" height="620" style="fill:none;"/>
            <clipPath id="_clip1">
                <rect x="1340" y="0" width="480" height="620"/>
            </clipPath>
            <g clip-path="url(#_clip1)">
                <g id="プラクティス">
                    <g transform="matrix(1.17073,0,0,1.32479,-300.649,-73.4736)">
                        <path d="M1431.25,61.911L1430.1,61.911C1428.14,61.911 1426.55,63.501 1426.55,65.461C1426.55,67.42 1428.14,69.011 1430.1,69.011L1431.25,69.011C1433.21,69.011 1434.8,67.42 1434.8,65.461C1434.8,63.501 1433.21,61.911 1431.25,61.911Z" style="fill:white;"/>
                    </g>
                    <g transform="matrix(1.17073,0,0,1.32479,-300.649,-73.4736)">
                        <path d="M1782.7,62.251L1782.7,62.25L1782.7,62.251L1782.64,62.251C1782.64,62.251 1543.03,65.051 1530.3,65.2C1529.41,64.937 1528.54,64.668 1527.71,64.39C1524.34,63.268 1514.51,62.609 1501.85,62.379C1473.5,61.865 1430.47,63.059 1417.46,63.059C1415.52,63.059 1413.93,64.627 1413.91,66.574C1413.91,66.932 1413.96,67.278 1414.06,67.604C1413.49,68.314 1413.1,69.288 1413.04,70.576C1412.93,73.474 1415.69,80.552 1416.39,82.665C1418.93,90.276 1417.36,100.009 1417.36,107.962C1417.36,135.128 1424.25,162.092 1424.25,188.369C1424.25,219.508 1422.45,249.398 1417.41,279.679C1413.19,304.967 1417.36,334.999 1417.36,360.67C1417.36,375.845 1414.52,392.766 1417.43,407.313C1421.93,429.804 1419.66,455.758 1419.66,478.983L1419.66,511.146C1419.66,512.298 1418.74,514.477 1418.74,514.477C1418.33,515.569 1418.47,516.794 1419.14,517.756C1419.8,518.717 1420.89,519.291 1422.06,519.291L1438.14,519.291C1447.53,519.291 1456.9,516.973 1466.15,515.818C1496.72,511.996 1527.42,512.532 1557.15,506.587C1580.35,501.946 1605.75,508.418 1629.26,505.479C1661.11,501.498 1694.18,502.061 1726.46,502.061C1745.38,502.061 1764.17,503.21 1782.74,503.21C1782.74,503.21 1785.04,503.21 1785.04,503.21C1785.98,503.21 1786.88,502.836 1787.55,502.17C1787.71,502.013 1788.59,500.971 1788.69,498.902C1788.93,493.858 1788.59,470.057 1788.59,467.497C1788.59,445.706 1789.29,421.24 1785.08,400.177C1782.96,389.613 1778,379.722 1775.88,369.163C1773.78,358.628 1770.96,264.767 1773.59,196.887C1774.71,168.104 1776.76,144.034 1780.37,133.206C1784.41,121.062 1788.59,102.511 1788.59,89.583C1788.59,83.785 1789.74,79.38 1789.74,73.501C1789.74,72.431 1789.36,71.13 1788.6,69.808C1788.04,68.83 1786.99,67.366 1786.25,66.369C1786.28,66.184 1786.29,65.994 1786.29,65.8C1786.29,63.84 1784.7,62.25 1782.74,62.25L1782.7,62.251ZM1779.67,69.386C1779.99,69.901 1780.37,70.447 1780.79,71C1781.42,71.832 1782.44,73.445 1782.64,73.753C1782.61,79.506 1781.49,83.868 1781.49,89.583C1781.49,101.848 1777.47,119.439 1773.63,130.961C1769.91,142.126 1767.65,166.931 1766.5,196.612C1763.84,265.15 1766.8,359.919 1768.92,370.556C1771.04,381.114 1776,391.006 1778.11,401.57C1782.24,422.195 1781.49,446.158 1781.49,467.497C1781.49,469.733 1781.76,488.344 1781.66,496.108C1763.43,496.065 1745.01,494.961 1726.46,494.961C1693.89,494.961 1660.52,494.417 1628.38,498.434C1604.7,501.394 1579.13,494.951 1555.76,499.625C1526.2,505.537 1495.66,504.973 1465.27,508.772C1456.31,509.892 1447.24,512.191 1438.14,512.191L1426.67,512.191C1426.72,511.812 1426.76,511.457 1426.76,511.146L1426.76,478.983C1426.76,455.306 1428.98,428.849 1424.39,405.921C1421.57,391.808 1424.46,375.392 1424.46,360.67C1424.46,335.369 1420.26,305.77 1424.41,280.846C1429.52,250.178 1431.35,219.907 1431.35,188.369C1431.35,162.092 1424.46,135.128 1424.46,107.962C1424.46,99.3 1425.89,88.71 1423.13,80.42C1422.75,79.291 1421.66,76.589 1420.87,74.051L1420.73,73.581L1527.14,72.337C1527.62,72.332 1528.07,72.234 1528.48,72.062L1528.84,72.169C1529.17,72.263 1529.52,72.31 1529.86,72.306L1779.67,69.386ZM1782.74,69.35L1782.78,69.35L1782.79,69.349L1782.74,69.35ZM1782.77,69.35L1782.76,69.35L1782.77,69.35Z" style="fill:white;"/>
                    </g>
                    <g transform="matrix(1.17073,0,0,1.32479,-300.649,-73.4736)">
                        <path d="M1765.74,279.696C1766.32,280.118 1767.04,280.367 1767.81,280.367C1771.07,280.367 1772.69,280.22 1773.06,280.122C1774.02,279.871 1774.52,279.399 1774.78,279.126C1775.51,278.377 1775.75,277.557 1775.78,276.785C1775.81,276.01 1775.63,275.175 1774.97,274.378C1774.75,274.107 1774.17,273.429 1772.9,273.126C1770.39,272.524 1739.3,270.969 1736.8,270.969C1711.78,270.969 1685,273.38 1660.34,269.856C1632.58,265.891 1547.11,262.889 1517.85,268.741C1488,274.712 1456.45,277.861 1425.51,277.861C1423.55,277.861 1421.95,279.452 1421.95,281.411C1421.95,283.371 1423.55,284.961 1425.51,284.961C1456.91,284.961 1488.94,281.764 1519.24,275.703C1548.01,269.95 1632.04,272.986 1659.33,276.885C1684.32,280.455 1711.45,278.069 1736.8,278.069C1738.56,278.069 1756.45,279.136 1765.74,279.696Z" style="fill:white;"/>
                    </g>
                    <g transform="matrix(1.17073,0,0,1.32479,-300.649,-73.4736)">
                        <path d="M1567.09,306.036C1570.97,311.573 1580.41,317.229 1586.32,320.094C1589.31,321.54 1591.57,322.248 1592.12,322.288C1594.85,322.481 1603.45,322.691 1610.04,321.984C1613.27,321.639 1616.06,321.028 1617.73,320.215C1645.38,306.82 1668.78,278.246 1656.24,246.785C1653.39,239.647 1649.34,230.51 1641.98,226.588C1632.13,221.343 1620.99,222.149 1610.25,222.73C1604.44,223.045 1598.57,223.116 1592.86,224.243C1570.46,228.666 1555.25,242.457 1551.83,265.309C1548.94,284.591 1560.53,296.654 1567.09,306.036ZM1592.92,315.224C1592.53,315.072 1590.94,314.443 1589.42,313.705C1584.39,311.269 1576.2,306.673 1572.91,301.964C1567.13,293.708 1556.31,283.332 1558.85,266.361C1561.79,246.726 1574.99,235.009 1594.24,231.209C1599.62,230.146 1605.16,230.117 1610.63,229.82C1620.1,229.307 1629.96,228.232 1638.64,232.855C1644.56,236.009 1647.36,243.674 1649.64,249.414C1660.73,277.231 1639.08,301.982 1614.64,313.826C1613.48,314.388 1611.52,314.686 1609.29,314.925C1603.37,315.558 1595.72,315.398 1592.92,315.224Z" style="fill:white;"/>
                    </g>
                    <g transform="matrix(1.17073,0,0,1.32479,-300.649,-73.4736)">
                        <path d="M1651.75,75.023C1651.83,75.92 1651.96,77.843 1651.91,79.434C1651.77,83.7 1651.26,88.896 1651.29,92.271C1651.31,94.435 1651.64,96.074 1652.06,96.914C1652.5,97.793 1653.11,100.87 1653.88,104.876C1655.66,114.154 1657.81,128.046 1658.45,134.019C1658.12,134.018 1657.79,134.005 1657.5,133.972C1655.36,133.726 1652.88,133.132 1650.58,132.716C1648.3,132.305 1646.15,132.075 1644.46,132.256C1643.11,132.401 1641.97,132.798 1641.05,133.399C1640.2,133.515 1638.14,133.787 1636.05,133.987C1621.42,135.398 1585.44,137.723 1579.43,137.723C1576.96,137.723 1569.77,139.313 1563.71,139.89C1562.33,140.021 1561.02,140.098 1559.87,140.064C1559.96,139.682 1560,139.316 1560,138.976L1560,128.638C1560,125.526 1563.19,98.325 1565.18,86.877C1566.21,86.254 1566.9,85.126 1566.9,83.839C1566.9,81.626 1566.69,80.365 1566.54,79.883C1566.08,78.507 1565.21,77.952 1564.65,77.674C1563.98,77.341 1563.29,77.235 1562.58,77.326C1562.03,77.396 1560,77.995 1559.21,80.762C1557.41,87.107 1552.9,124.864 1552.9,128.638L1552.9,138.393C1552.71,138.709 1552.38,139.275 1552.21,139.602C1551.88,140.252 1551.68,140.887 1551.62,141.443C1551.45,142.805 1551.84,143.972 1552.8,144.932C1554.22,146.361 1557.33,147.27 1561.29,147.158C1567.58,146.981 1576.62,144.823 1579.43,144.823C1586.28,144.823 1631.59,141.849 1641.28,140.557C1642.49,140.395 1643.3,140.214 1643.64,140.095C1644.24,139.887 1644.64,139.608 1644.91,139.379C1645.19,139.361 1646.41,139.29 1647.24,139.385C1649.37,139.631 1651.85,140.225 1654.16,140.641C1656.44,141.052 1658.59,141.282 1660.28,141.101C1662.14,140.901 1663.61,140.221 1664.64,139.189C1664.92,138.91 1665.23,138.517 1665.46,137.939C1665.57,137.651 1665.8,136.708 1665.69,135.207C1665.23,128.587 1660.29,98.259 1658.51,93.951C1658.5,93.69 1658.38,90.858 1658.5,88.597C1658.78,83.508 1659.32,77.192 1658.82,73.917C1658.26,70.186 1655.96,68.803 1654.09,68.803C1652.13,68.803 1650.54,70.393 1650.54,72.353C1650.54,73.417 1651.01,74.373 1651.75,75.023Z" style="fill:white;"/>
                    </g>
                    <g transform="matrix(1.17073,0,0,1.32479,-300.649,-73.4736)">
                        <path d="M1697.37,164.624C1690.2,165.366 1667.51,165.291 1664.43,165.291C1659.6,165.291 1652.86,165.73 1646.74,165.326C1643.13,165.088 1639.75,164.594 1637.3,163.369C1634.64,162.039 1627.18,161.48 1617.63,161.704C1597.29,162.18 1566.66,165.291 1557.6,165.291C1553.51,165.291 1536.32,166.076 1525.44,165.606C1522.93,165.498 1520.04,165.084 1518.85,164.898C1518.82,164.721 1518.79,164.526 1518.78,164.365C1518.73,163.179 1518.9,161.754 1519.15,160.244C1520.08,154.676 1522.1,148.161 1522.1,145.868C1522.1,121.831 1520.95,96.776 1520.95,73.501C1520.95,71.542 1519.36,69.951 1517.4,69.951C1515.44,69.951 1513.85,71.542 1513.85,73.501C1513.85,96.776 1515,121.831 1515,145.868C1515,148.388 1512.28,156.294 1511.77,161.915C1511.43,165.689 1512.23,168.698 1513.74,170.203C1514.18,170.641 1514.86,171.117 1515.84,171.475C1516.88,171.859 1518.56,172.187 1520.69,172.4C1530.76,173.407 1552.86,172.391 1557.6,172.391C1566.68,172.391 1597.4,169.279 1617.8,168.802C1622.87,168.683 1627.27,168.726 1630.5,169.039C1632.14,169.198 1633.4,169.359 1634.12,169.719C1637.29,171.301 1641.61,172.103 1646.27,172.411C1652.55,172.825 1659.47,172.391 1664.43,172.391C1667.37,172.391 1687.79,172.432 1696.47,171.822C1698.6,171.671 1700.14,171.435 1700.84,171.214C1701.71,170.933 1702.24,170.509 1702.55,170.203C1703.87,168.883 1704.73,165.973 1704.51,162.274C1704.17,156.352 1701.78,147.902 1701.11,145.894C1696.05,130.721 1696.7,110.9 1696.7,94.178C1696.7,88.699 1697.24,83.378 1697.58,78.196C1698.54,78.24 1699.52,77.894 1700.25,77.16C1701.64,75.775 1701.64,73.525 1700.25,72.14C1699.84,71.726 1699.72,70.904 1699.53,70.143C1699.09,68.286 1698.99,66.419 1698.99,66.419C1698.9,64.744 1697.65,63.361 1695.99,63.102C1694.34,62.843 1692.72,63.779 1692.13,65.346C1692.13,65.346 1690.75,69.198 1690.75,71.204C1690.75,78.569 1689.6,86.206 1689.6,94.178C1689.6,111.631 1689.09,132.303 1694.37,148.139C1694.97,149.924 1697.12,157.426 1697.43,162.689C1697.46,163.308 1697.42,164.054 1697.37,164.624Z" style="fill:white;"/>
                    </g>
                    <g transform="matrix(1.17073,0,0,1.32479,-300.649,-73.4736)">
                        <path d="M1515.2,527.228L1515.2,497.362C1515.2,478.807 1516.35,460.805 1516.35,442.226C1516.35,440.099 1516.3,434.197 1516.83,429.41C1516.94,428.404 1517.2,427.186 1517.42,426.247C1518.32,426.242 1519.22,425.895 1519.91,425.209C1521.29,423.823 1521.29,421.574 1519.91,420.188C1518.24,418.521 1516.62,418.266 1515.35,418.459C1513.75,418.702 1511.93,419.996 1510.94,422.789C1509.25,427.575 1509.25,438.957 1509.25,442.226C1509.25,460.805 1508.11,478.807 1508.11,497.362L1508.11,527.228L1515.2,527.228Z" style="fill:white;"/>
                    </g>
                    <g transform="matrix(1.17073,0,0,1.32479,-300.649,-73.4736)">
                        <path d="M1713.69,413.405C1699.71,413.412 1686.26,414.554 1672.47,414.554C1634.69,414.554 1596.69,415.671 1559.46,420.324C1554.81,420.905 1532.11,421.698 1521.76,423.445C1519.62,423.806 1517.93,424.234 1516.88,424.67C1515.95,425.053 1515.3,425.518 1514.89,425.932C1513.5,427.317 1513.5,429.567 1514.89,430.952C1516.17,432.233 1518.19,432.329 1519.58,431.242C1520.03,431.134 1523.71,430.265 1527.15,429.862C1538.45,428.539 1556.29,427.876 1560.34,427.37C1597.28,422.753 1634.98,421.654 1672.47,421.654C1685.84,421.654 1698.91,420.579 1712.44,420.509C1713,423.192 1712.92,427.114 1712.62,431.621C1711.61,446.895 1707.04,468.198 1705.73,476.102C1704.76,481.911 1704.57,488.038 1704.54,494.037C1703.19,494.542 1702.23,495.841 1702.23,497.362C1702.23,499.257 1702.52,502.705 1703.41,505.338C1703.94,506.884 1704.69,508.184 1705.57,509.062C1706.79,510.282 1707.96,510.285 1708.65,510.218C1709.83,510.104 1710.9,509.544 1711.57,508.2C1711.77,507.786 1712.02,507.052 1711.99,506.06C1711.96,505.291 1711.63,503.813 1711.63,503.106L1711.63,497.362C1711.63,490.709 1711.64,483.778 1712.73,477.27C1714.07,469.242 1718.68,447.603 1719.71,432.09C1720.2,424.678 1719.73,418.539 1718.15,415.367C1717.57,414.214 1716.67,413.588 1715.53,413.342C1715.12,413.255 1714.21,413.343 1713.69,413.405Z" style="fill:white;"/>
                    </g>
                    <g transform="matrix(1.17073,0,0,1.32479,-300.649,-73.4736)">
                        <path d="M1562.3,494.041L1562.3,460.605C1562.3,458.645 1560.71,457.055 1558.75,457.055C1556.79,457.055 1555.2,458.645 1555.2,460.605L1555.2,508.849C1555.2,510.647 1555.36,511.653 1555.48,512.056C1555.8,513.15 1556.39,513.692 1556.78,513.991C1557.35,514.436 1557.96,514.65 1558.56,514.721C1559.2,514.795 1561.8,514.623 1562.66,511.616C1563.38,509.088 1564.6,499.324 1564.6,497.362C1564.6,495.844 1563.64,494.547 1562.3,494.041Z" style="fill:white;"/>
                    </g>
                    <g transform="matrix(1.17073,0,0,1.32479,-300.649,-73.4736)">
                        <path d="M1561.36,466.137C1561.54,466.102 1565.4,465.322 1569.31,464.798C1588.44,462.233 1631.59,458.411 1636.86,458.411C1644.22,458.411 1652.75,459.376 1659.76,457.442C1659.81,457.65 1659.85,457.86 1659.89,458.06C1660.24,460.189 1660.45,463.075 1660.58,466.376C1660.92,475.475 1660.31,488.504 1659.8,496.984C1659.05,497.634 1658.58,498.592 1658.58,499.66C1658.58,503.725 1658.69,506.021 1658.83,506.925C1658.99,507.968 1659.34,508.55 1659.53,508.816C1660.48,510.177 1661.69,510.414 1662.68,510.357C1663.39,510.318 1665.18,510.064 1665.95,507.787C1666.84,505.182 1668.67,474.316 1667.29,460.045C1667.02,457.242 1666.6,455.017 1666.09,453.625C1665.68,452.496 1665.15,451.707 1664.64,451.202C1663.98,450.537 1663.07,450.163 1662.13,450.163L1659.83,450.163C1659.45,450.163 1659.07,450.224 1658.71,450.345C1652.16,452.529 1643.91,451.311 1636.86,451.311C1631.52,451.311 1587.77,455.161 1568.37,457.761C1562.94,458.489 1559.24,459.265 1558.31,459.727C1556.56,460.603 1555.85,462.737 1556.72,464.49C1557.58,466.2 1559.63,466.918 1561.36,466.137Z" style="fill:white;"/>
                    </g>
                    <g transform="matrix(1.17073,0,0,1.32479,-300.649,-73.4736)">
                        <path d="M1604.48,114.22C1604.16,114.419 1603.87,114.652 1603.62,114.912C1602.87,115.684 1602.3,116.742 1602.3,118.3C1602.3,120.259 1603.89,121.85 1605.85,121.85C1606.9,121.85 1607.86,121.385 1608.51,120.648C1609.29,120.748 1610.38,120.874 1611.06,120.906C1612.35,120.968 1613.48,120.75 1614.33,120.326C1621.02,116.979 1630.51,111.835 1633.34,103.341C1635.33,97.356 1634.64,92.896 1632.62,89.692C1630.68,86.637 1627.41,84.586 1623.33,83.581C1618.14,82.304 1611.55,82.721 1605.53,84.367C1600.3,85.794 1595.52,88.142 1592.38,90.93C1589.77,93.244 1588.23,95.915 1587.92,98.638C1587.44,102.856 1589.87,107.965 1598.52,112.286C1600.17,113.115 1602.24,113.695 1604.48,114.22ZM1617.1,110.819C1618.27,110.132 1619.43,109.383 1620.53,108.561C1623.19,106.589 1625.56,104.206 1626.6,101.096C1627.71,97.763 1627.74,95.269 1626.61,93.485C1625.6,91.885 1623.77,91.001 1621.63,90.475C1617.48,89.454 1612.22,89.899 1607.4,91.216C1603.32,92.33 1599.55,94.066 1597.09,96.241C1595.97,97.236 1595.11,98.261 1594.98,99.432C1594.89,100.213 1595.24,100.987 1595.9,101.805C1597.04,103.208 1598.95,104.563 1601.69,105.935C1603.36,106.767 1605.57,107.189 1607.91,107.723C1610.82,108.388 1613.89,109.164 1616.62,110.53C1616.79,110.615 1616.95,110.711 1617.1,110.819Z" style="fill:white;"/>
                    </g>
                    <g transform="matrix(1.17073,0,0,1.32479,-300.649,-73.4736)">
                        <path d="M1572.36,200.454C1572.07,197.428 1572.42,191.933 1573.02,187.189C1573.45,183.838 1573.94,180.868 1574.56,179.618C1575.31,178.123 1575.58,176.391 1575.64,174.576C1575.68,173.01 1575.44,171.35 1575.9,169.964C1578.35,162.61 1587.77,142.022 1597.4,130.333C1599.32,128.015 1601.22,126.06 1603.09,124.699C1604.47,123.701 1605.75,122.998 1607,122.998C1608.95,122.998 1610.55,121.408 1610.55,119.448C1610.55,117.489 1608.95,115.898 1607,115.898C1604.9,115.898 1602.67,116.588 1600.4,117.966C1597.66,119.632 1594.77,122.37 1591.93,125.816C1581.73,138.177 1571.76,159.941 1569.17,167.719C1568.68,169.188 1568.56,170.839 1568.55,172.519C1568.55,173.898 1568.77,175.321 1568.21,176.443C1567.39,178.077 1566.53,181.915 1565.98,186.299C1565.19,192.53 1564.93,199.884 1565.55,202.924C1566,205.185 1567.25,206.301 1568.08,206.706C1569.37,207.329 1571.03,207.526 1572.75,205.812C1574.13,204.426 1574.13,202.177 1572.75,200.791C1572.62,200.668 1572.49,200.555 1572.36,200.454ZM1567.83,200.697C1567.79,200.727 1567.76,200.759 1567.73,200.791L1567.83,200.697Z" style="fill:white;"/>
                    </g>
                    <g transform="matrix(1.17073,0,0,1.32479,-300.649,-73.4736)">
                        <path d="M1594.54,204.55C1596.41,204.457 1597.91,202.904 1597.91,201.004C1597.91,199.748 1597.4,198.892 1596.75,198.276C1596.16,197.716 1595.35,197.272 1594.22,197.25C1593.63,197.239 1592.48,197.456 1591.1,198.252C1588.68,199.654 1584.02,203.352 1581.8,205.124C1578.68,207.621 1574.44,209.574 1570.68,211.64C1568.66,212.751 1566.76,213.898 1565.15,215.127C1564.53,214.286 1563.72,213.145 1563.14,212.14C1560,206.662 1556.72,198.876 1556.45,197.826C1555.96,195.928 1554.03,194.782 1552.13,195.268C1550.23,195.754 1549.08,197.69 1549.57,199.588C1549.98,201.189 1556.47,216.518 1560.66,220.971C1563.54,224.035 1566.41,223.639 1568.15,221.893C1570.07,219.975 1573.01,218.423 1576.05,216.81C1579.63,214.911 1583.36,212.976 1586.24,210.668C1588.06,209.215 1592.99,205.663 1594.54,204.55ZM1590.82,201.209C1590.84,201.781 1590.99,202.256 1591.22,202.652C1590.99,202.216 1590.85,201.728 1590.82,201.209Z" style="fill:white;"/>
                    </g>
                    <g transform="matrix(1.17073,0,0,1.32479,-300.649,-73.4736)">
                        <path d="M1464.09,213.713C1463.77,214.114 1463.53,214.591 1463.4,215.118C1463.03,216.707 1463.78,218.348 1465.23,219.094C1465.23,219.094 1468.54,220.636 1470.3,220.636C1478.92,220.636 1488.61,215.286 1492.34,211.555C1496.01,207.889 1497.02,203.066 1496.64,197.697C1496.2,191.31 1493.62,184.058 1493.38,177.894C1493.35,177.088 1492.78,175.35 1490.68,174.05C1488.11,172.451 1481.57,169.934 1479.93,169.112C1477.24,167.767 1473.78,167.339 1470.15,167.797C1465.15,168.427 1459.85,170.716 1456.16,173.97C1451.35,178.203 1449.18,183.933 1452.19,189.956C1455.06,195.688 1456.66,203.484 1459.09,208.335C1460.18,210.528 1462.13,212.331 1464.09,213.713ZM1486.39,179.806C1485.75,179.462 1484.8,178.967 1483.98,178.594C1481.16,177.318 1477.85,176.011 1476.76,175.463C1475.19,174.679 1473.15,174.574 1471.04,174.841C1467.41,175.299 1463.54,176.93 1460.85,179.296C1458.57,181.309 1457.11,183.917 1458.55,186.781C1461.41,192.513 1463.01,200.309 1465.44,205.16C1467.03,208.335 1471.66,209.925 1472.52,210.247C1473.91,210.771 1474.34,211.656 1474.26,212.621C1474.37,212.756 1474.46,212.896 1474.54,213.041C1479.89,211.864 1485.04,208.812 1487.32,206.535C1490.18,203.674 1489.89,199.559 1489.21,195.217C1488.42,190.112 1486.85,184.691 1486.39,179.806ZM1468.38,211.854L1468.33,211.948C1468.3,211.999 1468.28,212.05 1468.25,212.101L1468.21,212.185L1468.21,212.186C1468.26,212.073 1468.32,211.962 1468.38,211.854ZM1468.44,211.754L1468.43,211.775L1468.49,211.686L1468.44,211.754ZM1468.51,211.648C1469.15,210.708 1470.23,210.09 1471.45,210.09C1469.67,210.09 1468.88,211.09 1468.51,211.648Z" style="fill:white;"/>
                    </g>
                    <g transform="matrix(1.17073,0,0,1.32479,-300.649,-73.4736)">
                        <path d="M1530.11,255.675C1529.88,253.935 1528.39,252.591 1526.59,252.591C1524.83,252.591 1523.36,253.876 1523.09,255.559C1519.74,254.052 1516.32,252.206 1515.54,251.817C1500.96,244.528 1491.08,227.993 1491.08,212.491C1491.08,210.532 1489.49,208.941 1487.53,208.941C1485.57,208.941 1483.98,210.532 1483.98,212.491C1483.98,230.492 1495.44,249.704 1512.37,258.167C1513.68,258.827 1522.02,263.268 1526.09,264.236C1528.73,264.862 1530.59,264.057 1531.4,263.246C1532.14,262.503 1532.71,261.412 1532.4,259.851C1532.32,259.464 1532.13,258.917 1531.78,258.298C1531.42,257.688 1530.31,255.989 1530.11,255.675Z" style="fill:white;"/>
                    </g>
                    <g transform="matrix(1.17073,0,0,1.32479,-300.649,-73.4736)">
                        <path d="M1528.44,261.378C1527.24,261.947 1525.49,262.543 1523.64,263.178C1520.73,264.176 1516.97,265.115 1514.54,265.682C1513.55,265.125 1512.31,265.054 1511.22,265.601C1508.79,266.813 1508.23,268.315 1508.12,268.787C1507.82,270.037 1508.12,271.094 1508.88,271.991C1509.29,272.473 1510.16,273.263 1511.78,273.331C1513.46,273.402 1520.22,271.853 1525.94,269.895C1530.07,268.479 1533.63,266.752 1534.84,265.543C1535.44,264.948 1535.9,264.136 1536.03,263.035C1536.12,262.246 1536,261.033 1535.46,259.569C1533.93,255.441 1527.63,245.425 1526.58,243.762C1526.24,242.478 1525.2,241.434 1523.81,241.167C1523.17,241.045 1522.63,241.106 1522.18,241.23C1521.45,241.43 1518.37,243.2 1520.05,246.634C1520.74,248.07 1523.86,252.821 1526.33,257.14C1527.12,258.529 1527.93,260.247 1528.44,261.378ZM1525.47,247.332C1524.68,248.022 1523.59,248.354 1522.47,248.14C1523.82,248.399 1524.78,247.997 1525.47,247.332Z" style="fill:white;"/>
                    </g>
                    <g transform="matrix(1.17073,0,0,1.32479,-300.649,-73.4736)">
                        <path d="M1646.03,191.036C1645.96,191.35 1645.93,191.678 1645.95,192.014C1646.06,193.895 1647.61,195.365 1649.5,195.365L1652.94,195.365C1653.34,195.365 1653.73,195.298 1654.09,195.174C1655.33,195.597 1656.76,195.314 1657.75,194.325C1658.99,193.081 1659.12,191.139 1658.13,189.753C1660.34,186.311 1662.3,181.585 1662.8,176.953C1663.33,172.104 1662.27,167.409 1658.9,164.034C1654.47,159.606 1647.67,157.309 1640.84,157.321C1634.02,157.333 1627.24,159.654 1622.86,164.034C1622.39,164.504 1621.77,165.457 1621.62,166.909C1621.47,168.428 1621.82,171.516 1621.82,172.287C1621.82,176.953 1622.98,180.248 1624.74,182.673C1627.34,186.255 1631.43,188.029 1636.13,189.087C1639.27,189.794 1642.69,190.203 1645.89,191L1646.03,191.036ZM1652.34,185.693C1653.95,183.146 1655.37,179.623 1655.75,176.19C1656.03,173.54 1655.72,170.899 1653.88,169.054C1650.7,165.877 1645.76,164.412 1640.86,164.421C1636.37,164.429 1631.86,165.67 1628.72,168.291C1628.79,169.448 1628.92,171.79 1628.92,172.287C1628.92,175.057 1629.44,177.059 1630.48,178.498C1632.09,180.713 1634.78,181.506 1637.69,182.16C1640.88,182.879 1644.36,183.301 1647.61,184.11C1649.26,184.521 1650.85,185.031 1652.34,185.693Z" style="fill:white;"/>
                    </g>
                    <g transform="matrix(1.17073,0,0,1.32479,-300.649,-73.4736)">
                        <path d="M1696.51,166.94C1696.64,168.096 1697.33,169.146 1698.41,169.702C1698.41,169.702 1700.77,170.801 1702.57,171.143C1708.6,174.428 1715.79,176.301 1724.19,179.101C1726.05,179.721 1728.06,178.715 1728.68,176.856C1729.3,174.997 1728.29,172.985 1726.43,172.366C1723.48,171.383 1720.69,170.539 1718.05,169.707C1723.11,168.369 1727.4,166.022 1731.27,162.162C1734.3,159.125 1735.65,152.733 1735.27,145.65C1734.91,139.04 1733.26,131.854 1731.2,127.026C1730.16,124.578 1728.97,122.68 1727.82,121.533C1725.5,119.214 1720.23,116.959 1716.56,115.124C1708.06,110.875 1700.35,114.392 1694.82,121.605C1690.44,127.303 1687.51,135.374 1686.82,142.798C1686.33,148.047 1686.99,152.973 1688.82,156.645C1691.03,161.063 1693.59,164.357 1696.51,166.94ZM1706.07,164.111C1714.62,163.888 1720.98,162.406 1726.25,157.142C1727.09,156.301 1727.51,154.93 1727.82,153.332C1728.24,151.187 1728.32,148.665 1728.18,146.034C1727.91,141.075 1726.82,135.742 1725.39,131.658C1724.58,129.374 1723.75,127.503 1722.8,126.553C1720.88,124.638 1716.41,122.99 1713.38,121.475C1708.26,118.912 1703.79,121.579 1700.45,125.928C1696.84,130.635 1694.46,137.322 1693.89,143.454C1693.54,147.242 1693.85,150.819 1695.17,153.47C1697.33,157.775 1699.91,160.755 1702.91,162.994L1703.48,162.994C1704.5,162.994 1705.42,163.423 1706.07,164.111Z" style="fill:white;"/>
                    </g>
                    <g transform="matrix(1.17073,0,0,1.32479,-300.649,-73.4736)">
                        <path d="M1708.75,190.31C1709.12,189.753 1709.33,189.085 1709.33,188.369C1709.33,184.881 1706.51,184.472 1706.01,184.432C1705.22,184.367 1703.6,184.418 1702.55,186.315C1702.17,187 1701.08,192.103 1701.08,194.112C1701.08,199.025 1699.93,203.085 1699.93,207.896C1699.93,209.856 1701.53,211.446 1703.48,211.446C1705.44,211.446 1707.03,209.856 1707.03,207.896C1707.03,203.085 1708.18,199.025 1708.18,194.112C1708.18,193.35 1708.53,191.455 1708.75,190.31ZM1702.24,188.601L1702.24,188.619L1702.24,188.589L1702.24,188.601Z" style="fill:white;"/>
                    </g>
                    <g transform="matrix(1.17073,0,0,1.32479,-300.649,-73.4736)">
                        <path d="M1702.37,237.382C1702.8,234.387 1703.59,228.541 1703.59,226.275C1703.59,224.316 1702,222.725 1700.04,222.725C1698.08,222.725 1696.49,224.316 1696.49,226.275C1696.49,228.718 1695.44,233.626 1695.12,236.905C1694.88,239.297 1695.17,241.159 1695.6,241.98C1696.35,243.44 1697.52,244.066 1698.85,244.16C1699.69,244.219 1701.06,244.056 1702.55,242.569C1703.93,241.184 1703.93,238.934 1702.55,237.549C1702.49,237.491 1702.43,237.435 1702.37,237.382Z" style="fill:white;"/>
                    </g>
                    <g transform="matrix(1.17073,0,0,1.32479,-300.649,-73.4736)">
                        <path d="M1694.47,270.849C1694.29,271.271 1694.19,271.735 1694.19,272.222C1694.19,274.68 1695.31,275.633 1695.43,275.744C1696.41,276.616 1697.47,276.782 1698.51,276.566C1698.81,276.505 1700.94,276.018 1701.37,273.399C1701.67,271.512 1702.44,260.196 1702.44,257.289C1702.44,255.33 1700.85,253.739 1698.89,253.739C1696.93,253.739 1695.34,255.33 1695.34,257.289C1695.34,259.425 1694.73,267.539 1694.47,270.849Z" style="fill:white;"/>
                    </g>
                    <g transform="matrix(1.17073,0,0,1.32479,-300.649,-73.4736)">
                        <path d="M1694.23,301.005C1694.13,300.459 1693.96,299.471 1693.97,298.743C1693.99,296.294 1694.52,293.502 1695.17,292.188C1696.05,290.436 1695.34,288.302 1693.59,287.426C1691.83,286.549 1689.7,287.261 1688.82,289.013C1687.43,291.801 1686.23,298.941 1687.35,302.973C1688.25,306.195 1690.33,307.935 1693.15,307.935C1695.11,307.935 1696.7,306.344 1696.7,304.385C1696.7,302.805 1695.66,301.464 1694.23,301.005Z" style="fill:white;"/>
                    </g>
                    <g transform="matrix(1.17073,0,0,1.32479,-300.649,-73.4736)">
                        <path d="M1696.23,351.323C1703.63,350.043 1708.45,344.185 1710.2,337.17C1713.12,325.526 1707.37,311.173 1692,311.173C1691.07,311.173 1687.42,310.737 1685.61,310.926C1684.1,311.085 1683.09,311.717 1682.6,312.213C1678.32,316.488 1674.42,318.97 1671.59,324.622C1666.72,334.367 1670.74,343.711 1677.86,348.76C1683.11,352.477 1690.01,353.82 1696.23,351.323ZM1686.81,318.013C1683.41,321.231 1680.2,323.271 1677.94,327.797C1674.88,333.93 1677.48,339.789 1681.97,342.967C1684.51,344.767 1687.67,345.734 1690.78,345.39C1691.41,344.827 1692.24,344.485 1693.15,344.485C1693.51,344.485 1693.86,344.467 1694.2,344.432C1695.37,343.887 1696.49,343.112 1697.53,342.078C1698.35,341.261 1699.46,340.926 1700.53,341.073C1701.86,339.51 1702.79,337.54 1703.32,335.448C1705.2,327.902 1701.96,318.273 1692,318.273C1691.33,318.273 1688.04,318.085 1686.81,318.013Z" style="fill:white;"/>
                    </g>
                    <g transform="matrix(1.17073,0,0,1.32479,-300.649,-73.4736)">
                        <path d="M1470.98,328.546C1471.88,329.342 1473.22,329.986 1475.06,330.185C1478.7,330.578 1485.26,329.542 1490.79,326.836C1494.76,324.895 1498.15,322.096 1499.9,318.608C1503.34,311.722 1502.6,303.604 1499.29,296.436C1496.1,289.51 1490.53,283.535 1484.53,280.534C1479.61,278.075 1473.01,278.747 1466.51,281.169C1457.73,284.439 1449.12,290.677 1445.97,293.834C1445.5,294.304 1444.88,295.258 1444.73,296.709C1444.57,298.228 1444.93,301.316 1444.93,302.088C1444.93,310.091 1447.09,316.622 1451.23,321.198C1455.43,325.847 1461.73,328.611 1470.3,328.611C1470.53,328.611 1470.76,328.589 1470.98,328.546ZM1477.21,323.15C1477.44,323.153 1477.66,323.148 1477.87,323.134C1481.04,322.916 1485.33,321.833 1488.84,319.844C1490.85,318.701 1492.62,317.279 1493.55,315.433C1496.04,310.454 1495.24,304.593 1492.85,299.41C1490.34,293.984 1486.05,289.235 1481.35,286.884C1477.97,285.193 1473.46,286.157 1468.99,287.823C1461.98,290.432 1455.08,295.161 1451.83,298.069C1451.89,299.217 1452.03,301.586 1452.03,302.088C1452.03,308.064 1453.4,313.019 1456.5,316.436C1459.52,319.778 1464.14,321.511 1470.3,321.511C1470.56,321.511 1470.81,321.539 1471.06,321.592C1471.11,321.529 1471.18,321.465 1471.24,321.402C1472.62,320.017 1474.87,320.017 1476.26,321.402C1476.76,321.9 1477.08,322.509 1477.21,323.15Z" style="fill:white;"/>
                    </g>
                    <g transform="matrix(1.17073,0,0,1.32479,-300.649,-73.4736)">
                        <path d="M1528.77,387.366C1528.12,387.059 1527.27,386.63 1526.63,386.204C1522.35,383.35 1517.18,378.467 1513.62,376.095C1510.42,373.959 1507.89,370.109 1505.72,365.811C1502.1,358.628 1499.64,350.144 1497.79,344.615C1497.04,342.364 1494.27,337.148 1493.2,332.617C1492.99,331.697 1492.84,330.816 1492.86,330.024C1492.87,329.665 1492.76,329.3 1493.02,329.118C1494.62,327.994 1495.01,325.779 1493.89,324.174C1492.76,322.569 1490.55,322.178 1488.94,323.301C1486.52,324.999 1485.48,327.91 1485.83,331.525C1486.33,336.801 1490.11,344.03 1491.06,346.86C1492.98,352.641 1495.6,361.497 1499.38,369.006C1502.15,374.503 1505.59,379.271 1509.69,382.003C1513.16,384.322 1518.19,389.051 1522.41,391.92C1524.74,393.508 1526.94,394.551 1528.65,394.824C1530.5,395.117 1532.04,394.716 1533.27,393.782C1534.63,392.757 1535.88,390.762 1535.88,387.089C1535.88,385.13 1534.29,383.539 1532.33,383.539C1530.37,383.539 1528.78,385.13 1528.78,387.089C1528.78,387.179 1528.78,387.272 1528.77,387.366Z" style="fill:white;"/>
                    </g>
                    <g transform="matrix(1.17073,0,0,1.32479,-300.649,-73.4736)">
                        <path d="M1517.5,403.294C1516.24,402.82 1514.76,403.091 1513.74,404.107C1512.75,405.093 1512.55,406.031 1512.49,406.592C1512.38,407.654 1512.68,408.533 1513.27,409.269C1513.7,409.806 1515.21,411.056 1517.85,410.52C1522.24,409.627 1537.28,403.245 1541.73,398.789C1544.75,395.769 1545.18,391.735 1543.72,387.311C1541.3,379.984 1532.95,371.275 1530.69,367.89C1529.6,366.26 1527.4,365.819 1525.77,366.906C1524.14,367.992 1523.7,370.198 1524.78,371.829C1526.6,374.555 1532.74,380.884 1535.88,386.98C1536.56,388.306 1537.1,389.609 1537.32,390.845C1537.53,391.949 1537.5,392.986 1536.71,393.769C1533.25,397.236 1522.15,401.968 1517.5,403.294Z" style="fill:white;"/>
                    </g>
                    <g transform="matrix(1.17073,0,0,1.32479,-300.649,-73.4736)">
                        <path d="M1610.57,401.72C1610.53,401.803 1610.49,401.882 1610.42,401.949C1610.31,402.064 1610.2,402.032 1610.05,402.129C1609.94,402.2 1609.84,402.231 1609.75,402.338C1609.21,402.973 1608.82,403.958 1608.17,404.95C1603.95,411.439 1595.03,422.212 1590.49,426.746C1590,427.228 1589.53,427.59 1589.23,427.972C1588.96,428.319 1588.69,428.646 1588.73,428.854C1588.7,428.847 1588.66,428.844 1588.62,428.844C1588.2,428.844 1587.87,429.178 1587.87,429.59C1587.85,429.83 1587.94,430.006 1587.98,430.162C1588.13,430.882 1589.05,431.401 1591.09,430.504C1591.23,430.443 1591.35,430.327 1591.48,430.222C1594.61,427.759 1600.75,420.456 1605.74,413.87C1608.45,410.3 1610.81,406.916 1612.12,404.549C1612.31,404.211 1612.59,403.924 1612.61,403.595C1612.64,403.28 1612.45,403.235 1612.45,402.949C1612.46,401.434 1612.88,400.536 1612.54,400.145C1612.19,399.735 1611.37,399.329 1610.06,400.107C1609.63,400.319 1609.46,400.834 1609.67,401.257C1609.85,401.597 1610.21,401.775 1610.57,401.72Z" style="fill:white;"/>
                    </g>
                    <g transform="matrix(1.17073,0,0,1.32479,-300.649,-73.4736)">
                        <path d="M1618.61,433.129C1618.58,433.009 1618.54,432.866 1618.47,432.755C1618.36,432.565 1618.28,432.345 1618.13,432.122C1617.84,431.705 1617.43,431.276 1617.03,430.777C1614.78,427.952 1611.67,423.839 1610.27,422.681C1606.73,419.768 1603.51,416.482 1600.49,412.985C1595.94,407.736 1591.8,402.037 1587.4,396.559C1586.92,395.96 1586.05,395.862 1585.45,396.342C1584.85,396.821 1584.75,397.697 1585.23,398.296C1589.63,403.807 1593.83,409.51 1598.34,414.822C1601.45,418.469 1604.7,421.94 1608.32,425.013C1609.63,426.119 1612.44,430.089 1614.58,432.746C1615.01,433.28 1615.37,433.799 1615.77,434.167C1616.01,434.384 1616.24,434.536 1616.46,434.675C1617.42,435.293 1618.06,435.533 1618.37,435.481C1618.94,435.383 1619.59,435.209 1619.55,434.185C1619.55,433.641 1619.14,433.192 1618.61,433.129ZM1617.48,433.826L1617.47,433.844L1617.5,433.772L1617.48,433.826ZM1617.58,433.614L1617.55,433.678L1617.5,433.77C1617.52,433.712 1617.55,433.66 1617.58,433.614ZM1618.66,433.292C1618.69,433.353 1618.72,433.38 1618.76,433.347C1618.82,433.287 1618.76,433.282 1618.66,433.292Z" style="fill:white;"/>
                    </g>
                    <g transform="matrix(1.17073,0,0,1.32479,-300.649,-73.4736)">
                        <path d="M1607.7,489.261C1607.14,489.445 1606.58,489.623 1606.03,489.787C1605.3,490.001 1604.61,490.22 1603.96,490.379C1603.34,490.53 1602.78,490.668 1602.27,490.709C1601.96,490.735 1601.69,490.775 1601.45,490.735C1601.18,490.688 1600.88,490.759 1600.82,490.47C1600.82,490.077 1600.5,489.758 1600.1,489.758C1599.71,489.758 1599.39,490.077 1599.39,490.47C1599.11,491.703 1599.81,492.452 1600.96,492.977C1601.79,493.353 1603.02,493.373 1604.43,493.256C1605.19,493.193 1606.01,493.063 1606.84,492.869C1610.66,491.981 1614.84,490.06 1615.75,489.605C1623.79,485.555 1626.62,477.278 1625.96,469.082C1625.27,460.418 1620.65,451.953 1614.56,448.92C1602.36,442.8 1588.51,455.483 1586.74,468.401C1585.43,478.01 1590.5,488.076 1607.7,489.261ZM1613.3,487.192C1613.77,486.995 1614.13,486.838 1614.32,486.741C1621.15,483.351 1623.43,476.266 1622.91,469.319C1622.34,461.766 1618.51,454.269 1613.21,451.613C1602.77,446.408 1591.41,457.796 1589.83,468.834C1588.7,476.648 1592.74,484.194 1605.7,486.361C1607.82,486.715 1610.15,486.972 1612.74,487.043C1612.94,487.043 1613.13,487.097 1613.3,487.192Z" style="fill:white;"/>
                    </g>
                    <g transform="matrix(1.17073,0,0,1.32479,-300.649,-73.4736)">
                        <path d="M1635.23,362.131C1635.36,361.858 1635.31,361.523 1635.09,361.297C1634.8,361.01 1634.33,361.01 1634.04,361.297C1632.34,362.05 1632.85,363.069 1633,363.69C1633.11,364.133 1633.55,364.553 1634.18,365.097C1634.27,365.178 1634.4,365.224 1634.51,365.322C1635.36,366.149 1636.46,366.593 1637.77,366.622C1639.42,366.659 1641.5,365.994 1643.72,364.862C1649.53,361.893 1656.53,355.744 1658.58,353.675C1662.13,350.108 1662.15,344.981 1660.3,339.875C1657.66,332.61 1651.3,325.477 1647.85,323.75C1640.42,320.025 1632.26,323.333 1626.95,329.476C1621.79,335.455 1619.42,344.039 1622.89,350.999C1623.86,352.889 1625.18,354.06 1626.69,354.87C1628.93,356.071 1631.53,356.528 1633.79,357.49C1634.38,357.743 1635.02,357.866 1635.53,358.311C1635.73,358.487 1635.88,358.712 1636.05,358.943C1636.36,359.392 1636.98,359.502 1637.43,359.187C1637.88,358.873 1637.99,358.252 1637.67,357.802C1637.4,357.389 1637.07,357.05 1636.77,356.697C1636.29,356.122 1635.84,355.579 1635.23,355.162C1633.84,354.201 1632.06,353.856 1630.4,353.292C1628.5,352.651 1626.64,351.878 1625.56,349.665C1622.6,343.754 1624.81,336.496 1629.19,331.41C1633.61,326.284 1640.34,323.275 1646.54,326.372C1649.63,327.911 1655.22,334.365 1657.57,340.863C1659,344.821 1659.26,348.831 1656.49,351.584C1654.78,353.278 1649.52,357.934 1644.5,360.883C1642.64,361.974 1640.82,362.817 1639.25,363.16C1638.28,363.375 1637.44,363.451 1636.92,362.91C1636.61,362.593 1636.31,362.288 1635.95,362.148C1635.74,362.065 1635.42,362.139 1635.23,362.131ZM1635.14,362.272C1635.13,362.296 1635.11,362.318 1635.09,362.34C1634.98,362.571 1634.99,362.736 1634.96,362.887C1634.95,362.923 1635.02,362.949 1635.02,362.949C1635.02,362.949 1635.12,362.887 1635.11,362.844C1635.06,362.637 1635.18,362.42 1635.14,362.272Z" style="fill:white;"/>
                    </g>
                    <g transform="matrix(1.17073,0,0,1.32479,-300.649,-73.4736)">
                        <path d="M1425.19,112.718C1425.45,112.63 1425.94,112.639 1426.44,112.342C1431.51,107.245 1437.07,105.371 1442.1,101.738C1443.41,100.794 1444.68,99.735 1445.9,98.492C1447.62,96.741 1451.01,89.822 1452.23,83.54C1453.15,78.828 1452.74,74.515 1450.14,72.766C1449.74,72.482 1449.18,72.581 1448.89,72.987C1448.61,73.393 1448.71,73.953 1449.11,74.237C1451.17,75.735 1450.94,79.289 1450.09,83.092C1448.81,88.822 1445.77,95.177 1444.16,96.755C1439.31,101.551 1433.67,103.271 1428.34,107.201C1427.06,108.145 1425.8,109.223 1424.57,110.473C1424.5,110.581 1424.58,110.693 1424.53,110.728C1424.03,111.065 1423.7,111.115 1423.59,111.558C1423.54,111.761 1423.39,112.038 1423.5,112.556C1423.5,113.027 1423.88,113.409 1424.36,113.409C1424.77,113.409 1425.12,113.112 1425.19,112.718ZM1425.11,112.757C1425.1,112.779 1425.09,112.794 1425.07,112.798C1425.03,112.805 1425.01,112.962 1425.02,112.911C1425.02,112.839 1425.05,112.791 1425.11,112.757Z" style="fill:white;"/>
                    </g>
                    <g transform="matrix(1.17073,0,0,1.32479,-300.649,-73.4736)">
                        <path d="M1781.8,107.776C1781.78,107.844 1781.77,107.914 1781.77,107.987C1781.77,108.523 1782.21,108.958 1782.74,108.958C1783.15,108.969 1783.41,108.823 1783.6,108.722C1784.01,108.499 1784.09,108.114 1784.1,107.581C1784.11,107.187 1783.67,106.312 1782.65,105.288C1779.14,101.746 1767.93,94.822 1766.11,91.185C1763.99,86.975 1760.67,82.174 1758.56,76.347C1757.4,73.169 1756.61,69.678 1756.6,65.8C1756.6,65.12 1756.04,64.568 1755.36,64.568C1754.68,64.568 1754.13,65.12 1754.13,65.8C1754.12,69.989 1754.95,73.765 1756.17,77.204C1758.3,83.148 1761.63,88.062 1763.76,92.36C1765.66,96.166 1776.76,104.127 1780.92,107.278C1781.19,107.483 1781.54,107.642 1781.8,107.776ZM1782.08,107.963C1782.06,108.042 1782.03,108.14 1782.08,108.096C1782.12,108.054 1782.12,108.009 1782.08,107.963Z" style="fill:white;"/>
                    </g>
                    <g transform="matrix(1.17073,0,0,1.32479,-300.649,-73.4736)">
                        <path d="M1436.72,479.693C1436.34,478.927 1435.95,478.162 1435.57,477.396C1434.7,475.643 1432.56,474.932 1430.81,475.808C1429.06,476.684 1428.35,478.819 1429.22,480.571C1429.6,481.337 1429.99,482.103 1430.37,482.868C1431.25,484.621 1433.38,485.332 1435.13,484.456C1436.89,483.58 1437.6,481.446 1436.72,479.693Z" style="fill:white;"/>
                    </g>
                    <g transform="matrix(1.17073,0,0,1.32479,-300.649,-73.4736)">
                        <path d="M1425.73,481.929C1426.73,483.435 1428.2,484.277 1429.96,484.711C1433.01,485.461 1437.03,484.846 1440.68,484.534C1442.99,484.338 1445.13,484.217 1446.62,484.994C1454.23,488.851 1460.73,492.655 1464.65,498.406C1467.14,502.062 1468.56,506.518 1468.54,512.295C1468.54,513.269 1469.33,514.059 1470.3,514.059C1471.28,514.059 1472.07,513.269 1472.07,512.295C1472.05,505.691 1470.36,500.615 1467.48,496.461C1463.21,490.321 1456.25,486.213 1448.04,482.162C1446.27,481.313 1443.88,481.22 1441.26,481.496C1438.37,481.8 1435.18,482.506 1432.41,482.475C1430.42,482.453 1428.66,482.096 1427.58,480.632C1427.22,480.121 1426.52,479.996 1426.01,480.354C1425.49,480.712 1425.37,481.418 1425.73,481.929Z" style="fill:white;"/>
                    </g>
                    <g transform="matrix(1.17073,0,0,1.32479,-300.649,-73.4736)">
                        <path d="M1782.74,473.938C1772.53,473.914 1761.64,476.761 1754.34,482.675C1749.44,486.648 1745.73,491.965 1745.55,498.727C1745.54,499.414 1745.61,500.099 1745.69,500.808C1745.69,501.603 1746.34,502.248 1747.13,502.248C1747.93,502.248 1748.57,501.603 1748.57,500.808C1748.65,500.188 1748.79,499.604 1748.88,499.009C1749.7,493.268 1752.25,488.681 1756.45,485.265C1763.2,479.771 1773.28,477.159 1782.74,477.137C1783.62,477.137 1784.34,476.42 1784.34,475.537C1784.34,474.655 1783.62,473.938 1782.74,473.938Z" style="fill:white;"/>
                    </g>
                </g>
            </g>
        </g>
    </g>
</svg>
