<?xml version="1.0" encoding="utf-8"?>
<!-- Generator: Adobe Illustrator 19.2.1, SVG Export Plug-In . SVG Version: 6.00 Build 0)  -->
<!DOCTYPE svg PUBLIC "-//W3C//DTD SVG 1.1//EN" "http://www.w3.org/Graphics/SVG/1.1/DTD/svg11.dtd">
<svg version="1.1" id="レイヤー_1" xmlns="http://www.w3.org/2000/svg" xmlns:xlink="http://www.w3.org/1999/xlink" x="0px"
	 y="0px" viewBox="0 0 139.6 147.4" style="enable-background:new 0 0 139.6 147.4;" xml:space="preserve">
<style type="text/css">
	.st0{fill:#FFFFFF;}
	.st1{fill:#AA8657;}
	.st2{fill:#D80C18;}
	.st3{fill:#F39800;}
</style>
<path class="st0" d="M139.6,90.4c-0.3-1.7-0.9-2.7-2.1-3.3c0,0-0.3-0.2-0.5-0.3c0.6-1.5,1-3.2,0.5-5c-0.6-2.2-1.9-3.7-3.7-4.2
	c-5-1.4-14.3-3.9-15.8-4.3c-1.3-0.3-2.5-0.1-3.7,0.5c0.3-1.9,0.5-3.7,0.6-5.4c1.1-13.2,0.5-23.6,0.3-26.5l-0.5-6.5l-3.4,0.6
	c-6.7,1.1-13,0.8-22.5-1.1c0-0.6,0-1.4,0.1-1.7c0.2-1.5,0.5-2.8,0.5-2.9c0.4-0.7,1.3-3,1.3-4.3c0-0.1,0.4-1.2,0.6-1.9
	c1.6-4.6,4.2-8,4.3-8.3c0.2-0.7-1.9-1.5-3.5-1.9c-1.4-0.3-2.9,0.1-4.2,1h-0.5c-0.3-0.5-0.8-0.9-1.2-1.3c-0.1-0.9-0.5-1.7-1-2.4
	c-0.9-1.2-2.3-1.7-3.7-1.2c-0.5,0.2-1.3,0.6-1.9,1.1c-0.9-1.8-2.2-2.7-3.4-3.1c-0.4-1.2-1.3-2.5-2.9-3.1C72,1.5,69.9,0.1,69.8,0
	c-0.2,0.1-2.2,1.6-3.5,4.9c-1.6,0.6-2.4,1.9-2.9,3.1C62.2,8.5,61,9.3,60,11.1c-0.7-0.6-1.4-0.9-1.9-1.1c-1.4-0.5-2.8,0-3.7,1.2
	c-0.5,0.7-0.8,1.6-1,2.4c-0.4,0.3-0.9,0.8-1.2,1.3h-0.5c-1.2-0.9-2.8-1.3-4.2-1c-1.5,0.3-3.7,1.2-3.5,1.9c0.1,0.3,2.7,3.8,4.3,8.3
	c0.2,0.7,0.6,1.8,0.6,1.9c0,1.3,0.9,3.6,1.3,4.3c0,0.1,0.3,1.4,0.5,2.9c0,0.3,0.1,1.2,0.1,1.7c-9.4,1.9-15.7,2.3-22.5,1.1l-3.2-0.6
	l-0.6,6.4c-0.2,2.9-0.9,13.3,0.3,26.5c0.1,1.7,0.3,3.5,0.6,5.4c-1.2-0.6-2.4-0.8-3.7-0.5c-1.5,0.3-10.8,2.9-15.8,4.3
	c-1.8,0.5-3.1,2-3.7,4.2c-0.5,1.8-0.1,3.5,0.5,5C2.5,86.8,2.2,87,2.2,87c-1.2,0.7-1.8,1.7-2.1,3.3s0.4,4.2,2.6,6.1
	c1.8,1.6,4.1,1.3,6.1,0.9c3,15,11.7,28.8,23.5,37.5c14.8,10.8,26.8,12.4,37.6,12.6c10.8-0.1,22.7-1.7,37.6-12.6
	c11.8-8.7,20.5-22.5,23.5-37.5c2,0.5,4.2,0.7,6.1-0.9C139.2,94.6,139.9,92,139.6,90.4L139.6,90.4z"/>
<path d="M136.9,90.9c-0.2-1.3-0.6-1.3-1-1.6c-0.4-0.3-2-0.6-2.9-0.9c1.3-2,2.4-3.9,1.9-5.9c-0.3-1-0.9-2.1-1.8-2.3
	c-5.3-1.5-14.3-3.9-15.7-4.2c-1.2-0.3-2.6,0.4-3.6,2c-1.1,1.6-0.4,4.4-0.4,6.7c0.3,17.5-10.3,34.1-25.4,40.4c-3.6,1.5-6.4,2.5-9,3.1
	c3.4-2.2,6.6-4.8,9.6-7.6c17.3-16.2,22.4-37.4,23.7-52.3c1.1-13,0.5-23.2,0.3-26l-0.3-3.1v-0.5l-0.5,0.1c-7.1,1.2-13.7,0.9-23.5-1.1
	c-1.4-0.3-2.7-0.7-4-1.1c0.9-0.5,1.5-0.8,1.7-1.2c0.3-0.6,0.4-1.3,0.4-2s0.3-2.3,0.4-3.1s0.1-0.8,0.7-1.7s0.6-1.8,0.6-2.4
	s0.2-1.3,0.4-1.9c0.9-2.6,2.8-5.9,3.4-6.9c0.3-0.4,0.4-0.5-0.2-0.6s-1.7,0.1-2.5,1.1c-0.4,0.4-0.3,0.5-0.6,0.3
	c-0.7-0.6-2.4-0.2-2.8,0.8s-0.4,1.9,0.1,2.5l0.2,0.2c0-0.5,0.3-1,1-0.7c0.5,0.2,0.3,1-0.4,1c-1,0-1.2-0.1-1.8-0.4s-1.5-0.6-1.7-1.4
	c0.8-0.1,2.3-0.5,2.4-2.1s-1.6-2.2-1.8-2.3c-0.2,0-0.3,0-0.2-0.2s0.1-1.5-0.5-2.3c-0.2-0.3-0.4-0.4-0.7-0.3
	c-0.6,0.2-1.6,0.9-1.8,1.7c0,0.1-0.1,0.2-0.3,0.1s-1.5-0.4-2.3,0.5s-1,2.5,0.5,3.5c-0.7,0.4-1.8,0.4-2.3,0.2c-0.5-0.1-1.8-0.3-2-0.3
	s-0.7-0.2-1.3-0.6c-0.6-0.5-0.7-0.5-0.8-0.8c-0.1-0.2-0.2-0.2,0.1-0.5s0.4-0.3,0.5-0.1c0.1,0.1,1.3,1.2,2.9,0.7
	c1.7-0.4,2.6-2.6,1.7-4.3c-0.8-1.8-1.9-2.1-3-2.3c-0.3,0-0.5,0-0.5-0.5s-0.2-2.2-2.1-2.6c-0.3,0-0.8,0.1-0.8-0.3s0-1.5-1.1-2.9
	c-1.1,0.8-1.1,2-1.1,2.4s-0.5,0.3-0.8,0.3c-1.9,0.4-2.1,2.1-2.1,2.6s-0.2,0.4-0.5,0.5c-1.1,0.2-2.2,0.6-3,2.3
	c-0.8,1.8,0.1,3.9,1.7,4.3c1.7,0.4,2.8-0.6,2.9-0.7s0.2-0.1,0.5,0.1c0.3,0.3,0.2,0.2,0.1,0.5c-0.1,0.2-0.2,0.3-0.8,0.8
	s-1.1,0.6-1.3,0.6s-1.5,0.2-2,0.3s-1.6,0.2-2.3-0.2c1.4-1,1.3-2.6,0.5-3.5s-2-0.6-2.3-0.5c-0.2,0.1-0.3,0-0.3-0.1
	c-0.2-0.7-1.2-1.5-1.8-1.7c-0.3-0.1-0.5,0-0.7,0.3c-0.6,0.7-0.6,2-0.5,2.3c0.1,0.2,0,0.2-0.2,0.2s-1.9,0.6-1.8,2.3s1.6,2,2.4,2.1
	c-0.2,0.8-1,1.1-1.7,1.4c-0.6,0.3-0.8,0.4-1.8,0.4c-0.7,0-0.8-0.8-0.4-1c0.7-0.2,0.9,0.2,1,0.7l0.2-0.2c0.5-0.5,0.5-1.5,0.1-2.5
	s-2-1.3-2.8-0.8c-0.2,0.2-0.2,0.2-0.6-0.3c-0.8-1-1.8-1.2-2.5-1.1c-0.6,0.1-0.5,0.3-0.2,0.6c0.6,1,2.5,4.2,3.4,6.9
	c0.2,0.6,0.4,1.3,0.4,1.9s0,1.5,0.6,2.4s0.6,0.9,0.7,1.7s0.4,2.4,0.4,3.1s0.1,1.5,0.4,2c0.2,0.4,0.8,0.8,1.7,1.2
	c-1.3,0.4-2.7,0.8-4,1.1c-9.8,2-16.4,2.3-23.5,1.1l-0.5-0.1v0.5L27,41.8c-0.2,2.8-0.9,13.1,0.3,26.1c1.3,14.9,6.5,36.1,23.7,52.3
	c3,2.8,6.2,5.3,9.6,7.6c-2.6-0.6-5.4-1.6-9-3.1c-15.2-6.4-25.7-22.9-25.4-40.4c0-2.3,0.7-5.1-0.4-6.7c-1.1-1.6-2.4-2.2-3.6-2
	c-1.4,0.3-10.4,2.8-15.7,4.2c-0.9,0.3-1.5,1.3-1.8,2.3c-0.5,2,0.6,3.9,1.9,5.9c-1,0.4-2.5,0.6-2.9,0.9s-0.7,0.3-1,1.6
	C2.6,91,2.8,92.7,4.4,94c1.5,1.3,4.1,0.1,6.4-0.4h0.1c2.3,15.1,10.7,29.6,22.9,38.6c14.8,10.8,26.8,11.9,36,12
	c9.2-0.1,21.2-1.2,36-12c12.2-9,20.6-23.5,22.9-38.6h0.1c2.4,0.5,5,1.6,6.4,0.4C136.8,93.1,137,91.4,136.9,90.9L136.9,90.9z
	 M62.6,28.3c1.7-0.6,4.8-1.2,7.3-1.2c2.4,0,5.6,0.7,7.3,1.2c1.6,0.5-2.9,1-5.9,1.3c-0.7-0.5-1.1-0.8-1.1-0.8l-0.3-0.2l-0.3,0.2
	c0,0-0.4,0.3-1.1,0.8C65.5,29.3,61,28.8,62.6,28.3z"/>
<path class="st1" d="M69.9,18.6c0,0-2.9,0.2-2.9,3.6c0,2.6,1.6,3.7,2.9,3.7s2.9-1.1,2.9-3.7C72.7,18.8,69.9,18.6,69.9,18.6z
	 M69.9,25.3c-0.9,0.1-2.6-0.9-2.5-3.2c0.1-3,2.4-3,2.5-3c0,0,2.3,0.1,2.5,3C72.4,24.4,70.8,25.3,69.9,25.3z"/>
<path class="st1" d="M51.8,23.3v-0.2c4.3-2.6,9.4-4.1,15.7-4.7c0.1,0,0.1,0.1,0.2,0.1c0,0.1-0.1,0.1-0.1,0.2
	c-6.2,0.6-11.3,2.1-15.6,4.6C52,23.4,51.9,23.4,51.8,23.3z"/>
<path class="st1" d="M66.4,23.9c0.2,0.5,0.4,0.6-0.7,0.7s-1.9,0.4-2.5,0.5s-0.4-0.3-0.4-0.6c0-0.4,0.3-2.4-1.6-3.7
	c-0.4-0.2-0.5-0.4,0.2-0.5s3.4-0.6,4.6-0.7c0.5,0,0.8-0.1,0.6,0.4C66.5,20.4,65.8,22.5,66.4,23.9z"/>
<path class="st1" d="M58.6,25.4c0.4,0.5,0.8,0.8,0.2,0.9s-3.9,1.9-4.3,2.1c-0.5,0.3,0.1-1.7-1.6-4.2c-0.3-0.4-0.5-0.4,0.1-0.8
	s3.1-1.5,4.4-2c0.7-0.3,0.8-0.4,0.7,0.1C58,22.2,57.3,23.7,58.6,25.4z"/>
<path class="st1" d="M53.3,28.6c0-0.4,0.2-2-1-3.2c-0.2-0.1-0.3-0.5-0.1-0.7c0.1-0.1,0.3-0.2,0.5,0s1,1.1,1.2,3.3
	c0,0.5,0.1,1-0.3,1.1C53.3,29,53.3,29,53.3,28.6z"/>
<path class="st1" d="M54.1,30.7c-0.1,0.1-0.3,0.1-0.4-0.1c0-0.1,0-0.2,0.1-0.3c3.5-2.6,8.8-4.5,13.4-4.8c0.1,0,0.3,0.1,0.3,0.2
	S67.4,26,67.3,26C62.8,26.3,57.4,28.2,54.1,30.7z"/>
<path class="st1" d="M62,22.6c-0.2-0.5-0.5-1-1-1.2s-1.1-0.2-1.6,0c-0.6,0.3-1,1.1-1,2c0,0.6,0.4,1.6,1.1,2c0.5,0.3,1,0.4,1.5,0.2
	C62.7,25,62.2,23.3,62,22.6z M61,25.2c-1.7,0.6-3.2-2.6-1.3-3.5c0.6-0.4,1.7,0.1,2,1C61.8,23.4,62.1,24.9,61,25.2z"/>
<path class="st1" d="M87.9,23.3v-0.2c-4.3-2.6-9.4-4.1-15.7-4.7c-0.1,0-0.1,0.1-0.2,0.1c0,0.1,0.1,0.1,0.1,0.2
	c6.2,0.6,11.3,2.1,15.6,4.6C87.8,23.4,87.8,23.4,87.9,23.3z"/>
<path class="st1" d="M73.3,23.9c-0.2,0.5-0.4,0.6,0.7,0.7s1.9,0.4,2.5,0.5s0.4-0.3,0.4-0.6c0-0.4-0.3-2.4,1.6-3.7
	c0.4-0.2,0.5-0.4-0.2-0.5s-3.4-0.6-4.6-0.7c-0.5,0-0.8-0.1-0.6,0.4C73.3,20.4,74,22.5,73.3,23.9z"/>
<path class="st1" d="M81.1,25.4c-0.4,0.5-0.8,0.8-0.2,0.9s3.9,1.9,4.3,2.1c0.5,0.3-0.1-1.7,1.6-4.2c0.3-0.4,0.5-0.4-0.1-0.8
	s-3.1-1.5-4.4-2c-0.7-0.3-0.8-0.4-0.7,0.1C81.7,22.2,82.4,23.7,81.1,25.4z"/>
<path class="st1" d="M86.4,28.6c0-0.4-0.2-2,1-3.2c0.2-0.1,0.3-0.5,0.1-0.7c-0.1-0.1-0.3-0.2-0.5,0s-1,1.1-1.2,3.3
	c0,0.5-0.1,1,0.3,1.1C86.4,29,86.4,29,86.4,28.6z"/>
<path class="st1" d="M85.6,30.7c0.1,0.1,0.3,0.1,0.4-0.1c0.1-0.1,0.1-0.3-0.1-0.4c-3.5-2.6-8.8-4.5-13.4-4.8c-0.1,0-0.3,0.1-0.3,0.2
	s0.1,0.3,0.2,0.3C76.9,26.3,82.3,28.2,85.6,30.7z"/>
<path class="st1" d="M78.7,25.6c0.5,0.2,1,0.1,1.5-0.2c0.7-0.5,1.1-1.4,1.1-2c0-1-0.3-1.7-1-2c-0.5-0.2-1.1-0.2-1.6,0
	s-0.9,0.7-1,1.2C77.5,23.3,77,25,78.7,25.6z M78.1,22.7c0.2-0.9,1.4-1.3,2-1c1.9,0.9,0.4,4.1-1.3,3.5C77.6,24.9,77.9,23.4,78.1,22.7
	z"/>
<g>
	<path class="st1" d="M55.7,18.3c0,0.2,0.1,0.5-0.3,0.1s-0.7-1.2-0.2-1.9s1.4-0.7,1.9-0.5c0.4,0.2,0.3-0.1,0.1-0.4s-0.7-1.7,0-2.4
		c0.7,0.2,1.3,0.7,1.4,2.2c0,0.2,0.1,0.4,0.3,0s1.2-0.8,1.9-0.6c0.6,0.3,1.1,0.7,0.9,2c0,0.2-0.2,0.4-0.4,0.1
		c-0.2-0.4-0.8-0.7-1.3-0.5s-1,1.1,0,1.9c0.5,0.3,0.5,0.5,0.7,0.6s0.4,0.2,0,0.4c-0.4,0.1-2.1,0.6-2.8,0.8c-0.6,0.2-0.7,0.2-0.5-0.2
		c0.1-0.4,0.4-1.3,0.3-1.8c-0.2-0.6-1.1-0.9-1.5-0.5C55.7,17.8,55.7,18,55.7,18.3z"/>
	<path class="st1" d="M60.7,18l-0.3-0.3c-0.3-0.3-0.4-0.6-0.1-0.8c0.2-0.2,0.5-0.1,0.6,0.3C61,17.7,61.2,18.2,60.7,18z"/>
	<path class="st1" d="M56.4,18.7c-0.1-0.4,0.1-0.7,0.4-0.7s0.4,0.2,0.3,0.4C57.1,18.6,56.9,19.6,56.4,18.7z"/>
	<path class="st1" d="M51.4,21.9c-0.8-1.6-2-4-2.3-4.5c0.6,0.1,1.1,0.4,1.4,1.1c0.2,0.4,0.3,0.7,0.5,0.2c0.3-0.5,1.3-0.7,1.9-0.4
		c0.7,0.4,0.9,1.3,0.4,1.1c-0.6,0-1.4,0.4-1.5,1s0.2,1.3,0.4,1.4c0.3,0.1,0.4,0.4-0.1,0.6S51.7,22.6,51.4,21.9z"/>
	<path class="st1" d="M76.9,13.6c-0.1-3.1-3.4-3.1-4.1-2.6c-0.2,0.1-0.5,0.3-0.5-0.1c-0.1-0.4-0.2-0.5-0.5-0.5s-0.4,0-0.2,0.4
		c0.1,0.4,0.2,0.8-0.2,1.2s-0.7,1-0.8,1.3c-0.1,0.4-0.2,0.3-0.2-0.2s-0.1-2.9,0.9-3.5c1.1-0.6,1.4,0.1,1.5,0.2s0.4,0.4,0.4-0.5
		s-1.3-1.8-2.1-1.4s-0.7,0.4-0.5-0.8S70.1,5.2,70,5l-0.1-0.1c0,0-0.1,0-0.1,0.1c-0.1,0.2-0.8,0.9-0.6,2.1s0.4,1.2-0.5,0.8
		c-0.8-0.4-2.1,0.5-2.1,1.4S67,9.9,67,9.8c0.1-0.1,0.5-0.8,1.5-0.2c1.1,0.6,0.9,3,0.9,3.5s0,0.5-0.2,0.2c-0.1-0.4-0.5-1-0.8-1.3
		c-0.4-0.4-0.3-0.8-0.2-1.2s0-0.4-0.2-0.4c-0.3,0-0.4,0.1-0.5,0.5S67.1,11.1,67,11c-0.7-0.5-4-0.5-4.1,2.6s3.2,3.1,3.9,1.9
		s0-1.9-0.2-2.2s-0.6-0.2-0.5,0.1s0,0.5-0.2,0.6c-0.8,0.3-1.2-0.5-0.9-1.4c0.2-0.9,1.5-1.1,2.2-0.9s0.6,0.5,0.5,0.6
		s-0.3,0.1-0.4,0.4s-0.1,0.5,0.3,0.4c0.4-0.2,1,0.1,1.4,0.5s0,0.5-0.2,0.5c-1.1,0-1.1,1-0.8,1.7c0.3,0.4,0.1-0.2,0.3-0.5
		s1-0.4,1,0.3c0,0.8-0.9,1.6-1.3,2.2s-0.2,0.5,0.4,0.4c0.4-0.1,1-0.1,1.7-0.1c0.6,0,1.3,0,1.7,0.1c0.6,0.1,0.8,0.1,0.4-0.4
		c-0.4-0.6-1.3-1.3-1.3-2.2c0-0.7,0.8-0.6,1-0.3s0,0.9,0.3,0.5c0.4-0.7,0.3-1.7-0.8-1.7c-0.2,0-0.6-0.1-0.2-0.5s1-0.6,1.4-0.5
		c0.4,0.2,0.4-0.1,0.3-0.4s-0.3-0.3-0.4-0.4s-0.1-0.4,0.5-0.6c0.7-0.2,1.9,0,2.2,0.9c0.2,0.9-0.1,1.7-0.9,1.4
		c-0.2-0.1-0.3-0.2-0.2-0.6c0.1-0.3-0.2-0.4-0.5-0.1c-0.2,0.3-0.9,1-0.2,2.2C73.7,16.7,77.1,16.7,76.9,13.6L76.9,13.6z M70,15.6
		c-0.1,0.2-0.2,0.2-0.2,0.2s-0.1,0-0.2-0.2c-0.3-0.7-0.2-1.7,0.1-2.2C70.2,13.8,70.3,14.8,70,15.6z"/>
	<path class="st1" d="M84,18.3c0,0.2-0.1,0.5,0.3,0.1s0.7-1.2,0.2-1.9s-1.4-0.7-1.9-0.5c-0.4,0.2-0.3-0.1-0.1-0.4s0.7-1.7,0-2.4
		c-0.7,0.2-1.3,0.7-1.4,2.2c0,0.2-0.1,0.4-0.3,0s-1.2-0.8-1.9-0.6c-0.6,0.3-1.1,0.7-0.9,2c0,0.2,0.2,0.4,0.4,0.1
		c0.2-0.4,0.8-0.7,1.3-0.5s1,1.1,0,1.9c-0.5,0.3-0.5,0.5-0.7,0.6s-0.4,0.2,0,0.4c0.4,0.1,2.1,0.6,2.8,0.8c0.6,0.2,0.7,0.2,0.5-0.2
		c-0.1-0.4-0.4-1.3-0.3-1.8c0.2-0.6,1.1-0.9,1.5-0.5C84.1,17.8,84,18,84,18.3z"/>
	<path class="st1" d="M79.1,18l0.3-0.3c0.3-0.3,0.4-0.6,0.1-0.8c-0.2-0.2-0.5-0.1-0.6,0.3C78.7,17.7,78.5,18.2,79.1,18z"/>
	<path class="st1" d="M83.4,18.7c0.1-0.4-0.1-0.7-0.4-0.7s-0.4,0.2-0.3,0.4C82.7,18.6,82.9,19.6,83.4,18.7z"/>
	<path class="st1" d="M88.4,21.9c0.8-1.6,2-4,2.3-4.5c-0.6,0.1-1.1,0.4-1.4,1.1c-0.2,0.4-0.3,0.7-0.5,0.2c-0.3-0.5-1.3-0.7-1.9-0.4
		c-0.7,0.4-0.9,1.3-0.4,1.1c0.6-0.1,1.4,0.2,1.5,0.9c0.1,0.6-0.2,1.3-0.4,1.4c-0.3,0.1-0.4,0.4,0.1,0.6S88.1,22.6,88.4,21.9z"/>
</g>
<g>
	<path class="st1" d="M67.1,30.6c-0.6,0-4.3-0.7-5.1-0.9c-0.8-0.3-0.9-0.3-1.4-0.1s-3.1,1.4-4.3,2.2s-1.3,1.1,0,1.5
		c1.2,0.3,1.7,0.6,3.8,1.3c2.6-1.2,4.9-2.6,6.6-3.7C66.9,30.8,67,30.7,67.1,30.6z"/>
	<path class="st1" d="M83.4,33.2c1.3-0.4,1.2-0.8,0-1.5s-3.9-2-4.3-2.2c-0.5-0.2-0.7-0.2-1.4,0.1c-0.8,0.3-4.5,0.9-5.1,0.9
		c0.1,0.1,0.3,0.2,0.4,0.3c1.7,1.1,3.9,2.4,6.6,3.7C81.7,33.8,82.3,33.5,83.4,33.2z"/>
</g>
<g>
	<circle class="st1" cx="26.6" cy="113.7" r="2.6"/>
	<polygon class="st1" points="36.9,126 37.8,124 36,125.3 	"/>
	<path class="st1" d="M58.2,132.7l-0.4,2c0,0,2,0.7,2.2-0.6S58.2,132.7,58.2,132.7z"/>
	<path class="st1" d="M84.7,131.8l0.6,2c0,0,2-0.4,1.6-1.6C86.5,130.8,84.7,131.8,84.7,131.8z"/>
	<polygon class="st1" points="66,137.3 67.1,137.3 66.6,135.2 	"/>
	<polygon class="st1" points="19.6,99.6 21.5,98.5 19.3,98.5 	"/>
	<path class="st1" d="M129.8,79.7l-0.3-0.1c-3.8-1-7.5-2-11.2-3c-1,0-1.8,0.6-2.3,1.3c-1.1,1.7-0.6,4.5-0.5,6.2
		c0.3,5.7-1,13-3.5,18.8c-4.4,10.5-12.1,18.7-21.4,23.1c-6.6,3.2-11.8,4.3-15.7,4.7c-1,0.6-2.1,1.1-3.1,1.7l-1.6,0.8l-0.2,0.1
		l-0.2-0.1c0,0-1.6-0.8-1.5-0.8c-1.1-0.5-2.1-1.1-3.1-1.7c-3.9-0.4-9.2-1.6-15.7-4.7c-9.3-4.4-17-12.7-21.4-23.1
		c-2.5-5.8-3.7-13.1-3.5-18.8c0.1-1.7,0.6-4.5-0.5-6.2c-0.6-0.7-1.4-1.3-2.3-1.3c-3.8,0.9-7.5,2-11.2,3l-0.3,0.1
		c0.8,0.3,2.3,1.3,2.3,2.9c-0.1,10.8,1.5,18.4,5.2,26.4c6.6,15.3,22.2,28.3,38.1,31.9c4.6,1.3,9.4,1.8,14.4,1.8
		c5,0.1,9.7-0.5,14.4-1.8c15.9-3.7,31.5-16.6,38.1-31.9c3.7-8,5.2-15.6,5.2-26.4C127.5,81,129,79.9,129.8,79.7L129.8,79.7z
		 M15.4,90.6l-1.2,0.9l-0.3-3.4l1.4,0.7l6.3-0.6l1.3-1l0.2,2.3l-3.4,3.1l2.5-0.2l1.1-1l0.3,3.4l-1.3-0.7l-7.9,0.7l4.8-4.5
		C19.2,90.3,15.4,90.6,15.4,90.6z M16.7,104l-1-3.5l1.6,0.3c0,0,0.9,0.2,0.6-0.9l-0.2-0.8c-0.3-1.1-0.9-0.5-0.9-0.5l-1.2,1.2
		l-0.9-3.3l1.7,0.4l6.2-0.2l1.2-1.2l0.9,3.2l-6.7,4.1C18,102.8,16.7,104,16.7,104z M18.4,108.4c-0.8-1.8-0.4-4.8,2.2-6
		c2.5-1.2,5.2-0.4,6.2,1.8c0.4,0.9,0.5,1.6,0.5,1.6l1.1,0.8l-3.3,1.5c0,0,0.8-1.6-0.1-3.1s-2.8-1.2-3.6-0.6s-2.2,1.9-0.6,4l1.5-0.7
		l0.9-1.2l1,2.2l-3.7,1.7C20.4,110.5,19.2,110.3,18.4,108.4z M22,113.7c0-2.6,2.1-4.6,4.6-4.6c2.6,0,4.6,2.1,4.6,4.6
		c0,2.6-2.1,4.6-4.6,4.6S22,116.2,22,113.7z M29.6,124.8l-1.3-1.4L27,122l1.8-0.1l1.6-1.5l2.1-5.9l2.2,2.3l-1.3,0.4l-0.8,2.3
		l2.5-0.6l0.5-1.3l2.1,2.4l-6,1.5l-1.6,1.5L29.6,124.8z M37.3,129.6l-0.4,1.7l-2.8-2.3l1.6-0.6c0,0,0.9-0.3,0-1l-0.7-0.6
		c-0.9-0.7-1.1,0.1-1.1,0.1l-0.3,1.6l-2.7-2.2l1.6-0.7l5-3.7l0.3-1.7l2.6,2.2C40.4,122.4,37.3,129.6,37.3,129.6z M51.1,136.4
		l0.5-1.6l-0.2-1.4l2.3,0.8l-1.3,3.8c0,0-1,0.7-2.9,0.1c-1.9-0.7-3.7-3.1-2.8-5.7s3.3-4,5.6-3.2c1,0.3,1.5,0.8,1.5,0.8l1.3-0.2
		l-1.2,3.4c0,0-0.6-1.7-2.3-2.1s-2.8,1.2-3,2.1C48.5,134.2,48.5,136.1,51.1,136.4L51.1,136.4z M62.1,134.7c-0.3,1.3-1.1,1.8-2,1.9
		l1.5,4.2l-3.5-0.7l1-1.2l-0.9-2.4c-0.2,0-0.4-0.1-0.6-0.1l-0.5,2.2l0.6,1.5l-3.6-0.8l1-1.2l1.3-6l-0.5-1.4l4.7,1
		C60.6,131.6,62.6,132.2,62.1,134.7z M66.7,141.3l0.8-1.4c0,0,0.5-0.7-0.6-0.8L66,139c-1.1-0.1-0.8,0.7-0.8,0.7l0.7,1.5l-3.5-0.2
		l0.9-1.5l1.8-5.9l-0.7-1.6l3.4,0.2l1.7,7.6l0.7,1.6L66.7,141.3z M78.2,140.8l0.5-1.4l-0.4-3.9l-1.4,3.9l-2.1-3.5l0.4,3.9l0.8,1.3
		l-3.3,0.4l0.3-1.4l-0.7-6.4l-0.7-1.1l3-0.3l1.7,2.5l1.1-2.8l3-0.3L80,133l0.7,6.4l0.6,1.3L78.2,140.8z M85.8,135.3l0.7,2.1l1.3,1
		l-3.5,1.1l0.3-1.5l-1.9-5.9l-1.1-1l4.6-1.5c0,0,2-0.5,2.8,2C89.7,134,87.4,134.8,85.8,135.3L85.8,135.3z M95.5,135.2
		c-2.5,1.4-3.6-0.6-3.6-0.6l-2.7-4.8l-1.2-0.7l2.8-1.5l-0.1,1.4c0,0,1.5,2.8,2.3,4.1c0.7,1.3,1.6,0.6,1.6,0.6s1.1-0.4,0.4-1.7
		s-2.3-4.1-2.3-4.1l-1.2-0.7l2.8-1.5v1.4l2.7,4.8C96.8,131.8,97.9,133.9,95.5,135.2L95.5,135.2z M102.8,130.8
		c-1,0.9-2.6,1.1-2.6,1.1l-0.3,0.8l-2.1-2.9c0,0,1.7,0.3,2.7,0.1s1.8-1.2,1.1-1.8c-0.6-0.6-2.1-0.1-2.1-0.1c-0.7,0.1-3.4,1-3.9-1.6
		c-0.6-2.9,2.9-3.4,2.9-3.4l0.2-1l1.9,2.7c0,0-0.5-0.1-1.3-0.1h-0.5c-0.3,0.1-0.9,0.1-1.2,0.7s0.1,0.9,0.3,1
		c0.1,0.1,0.8-0.1,0.9-0.1s3.4-1.3,4.5,0.7C104.3,128.7,103.6,130.1,102.8,130.8L102.8,130.8z M114.3,119.6l-1.1,1.4l-1.1,1.4
		l-0.6-1.5l-5.1-4l-1.4-0.1l2.2-2.7l1.5-1.9l2.8,2.2l-2.5-0.2l-1.1,1.4l1.4,1.1l0.2,0.2l0.3-1.8l2.1,1.6l-1.6,0.8l0.4,0.3l1.7,1.3
		l1.1-1.4l-0.9-2.5l3.2,2.6L114.3,119.6L114.3,119.6z M117.1,115.8l-0.7-1.4l-5.5-3.4h-1.4l1.8-3l0.6,1.3l1.8,1.1l1.5,0.9l2.2,1.3
		l1.6,0.1L117.1,115.8L117.1,115.8z M121.5,107.6c-0.8,1.8-3.3,3.5-5.9,2.4s-3.8-3.6-2.8-5.8c0.4-1,0.9-1.4,0.9-1.4l-0.1-1.3
		l3.3,1.4c0,0-1.8,0.5-2.3,2.1c-0.5,1.7,1,2.9,1.9,3.1s2.9,0.4,3.4-2.2l-1.5-0.7l-1.4,0.1l1-2.2l3.7,1.6
		C121.6,104.8,122.3,105.8,121.5,107.6L121.5,107.6z M124,99.2l-1.1-1.2l-2.5-0.6l-0.5,2.2l2.5,0.6l1.5-0.4l-0.9,3.5l-1.1-1.2
		l-6.3-1.6l-1.4,0.5l0.8-3.4l1,1l2,0.5l0.5-2.2l-2-0.5l-1.4,0.5l0.8-3.4l1,1l6.3,1.6l1.5-0.4L124,99.2L124,99.2z M125.5,92.5l-1.3-1
		l-5.8-0.6l-0.1,0.8l1.5,1.6l-3.3-0.4l0.3-3v-0.3l0.3-3l3.3,0.4l-1.8,1.2l-0.1,0.8l5.8,0.6l1.5-0.8L125.5,92.5L125.5,92.5z"/>
</g>
<g>
	<path class="st1" d="M9.5,93.8c0-0.2,0.2-0.3,0.4-0.7c0.6-1.1,0.3-3.6-0.7-4.5c-5.1-5-2-8.1-1.5-8.2c1-0.2,1.8,1,2.2,2
		c0.4,0.9,0.3,2.8,0.4,4.6c0.2,2.1,0.2,4.6,0.6,6.4C10.4,93.7,9.9,93.7,9.5,93.8z"/>
	<path class="st1" d="M7,88.8c0.2,0.1,0.5,0.6,0.8,1.1c0.5,0.8,0.4,1.5,0.3,1.6c-0.1,0.1-0.3,0.1-0.3,0v-0.6c-0.1-0.5-0.5-1.5-1-1.8
		C6.6,88.9,6.8,88.8,7,88.8z"/>
	<path class="st1" d="M8,92c0.1,0,0.2,0,0.1,0.2c0,0.3,0,1.1-0.4,1.6c-0.4,0.5-0.4,0.7-1.3,0.3c-0.8-0.4-1.7-1.3-1.9-2.2
		c-0.3-0.9-0.3-1.6-0.2-2c0.1-0.4,0.2-0.4,0.5-0.2c0.4,0.3,0.7,0.6,0.8,1.5c0.1,0.9-0.1,1.3-0.1,1.3c0,0.1,0.7-0.2,1.2-0.3
		C7.4,92.1,7.9,92,8,92z"/>
	<path class="st1" d="M128.9,93.5c0.4-1.8,0.4-4.3,0.6-6.4c0.2-1.8,0.1-3.7,0.4-4.6c0.4-0.9,1.2-2.1,2.2-2c0.5,0.1,3.6,3.1-1.5,8.2
		c-1,1-1.3,3.5-0.7,4.5c0.2,0.4,0.4,0.5,0.4,0.7C129.9,93.7,129.4,93.7,128.9,93.5z"/>
	<path class="st1" d="M132.9,89.1c-0.4,0.3-0.9,1.3-1,1.8v0.6c0,0.1-0.3,0.1-0.3,0c-0.1-0.1-0.1-0.8,0.3-1.6c0.3-0.5,0.6-1,0.8-1.1
		C132.9,88.8,133.2,88.9,132.9,89.1z"/>
	<path class="st1" d="M132.9,92.3c0.5,0.1,1.2,0.4,1.2,0.3c0-0.1-0.1-0.4-0.1-1.3c0.1-0.9,0.4-1.3,0.8-1.5c0.4-0.3,0.5-0.2,0.5,0.2
		c0.1,0.4,0.1,1.1-0.2,2c-0.3,0.9-1.1,1.8-1.9,2.2s-0.8,0.2-1.3-0.3c-0.4-0.5-0.4-1.3-0.4-1.6c0-0.3,0-0.3,0.1-0.2
		C131.8,92,132.3,92.1,132.9,92.3L132.9,92.3z"/>
</g>
<path d="M112.5,42.1l-0.3-3.1v-0.5l-0.5,0.1c-7.1,1.2-13.7,0.9-23.5-1.1c-9.4-1.9-18.1-8.6-18.2-8.7l-0.3-0.2l-0.3,0.2
	c-0.1,0.1-8.8,6.7-18.2,8.7c-9.8,2-16.4,2.3-23.5,1.1l-0.5-0.1V39l-0.3,3.1c-0.2,2.8-0.9,13.1,0.3,26.1c1.3,14.9,6.5,36.1,23.7,52.3
	c5.1,4.8,10.8,8.7,16.9,11.8l1.5,0.8l0.2,0.1l0.2-0.1l1.6-0.8c6.1-3.1,11.8-7.1,16.9-11.8c17.3-16.2,22.4-37.4,23.7-52.3
	C113.4,55.2,112.8,44.9,112.5,42.1z"/>
<path class="st1" d="M69.9,29.2c0,0,8.7,6.8,18.4,8.8c9.4,1.9,16.2,2.4,23.6,1.1l0.3,3.1c0.2,2.8,0.8,13-0.3,26
	c-1.3,14.9-6.4,35.9-23.6,52.1c-4,3.8-9.5,8.1-16.8,11.8l-1.6,0.8l-1.6-0.8c-7.3-3.7-12.8-8-16.8-11.8
	c-17.2-16.1-22.3-37.2-23.6-52.1c-1.1-12.9-0.5-23.2-0.3-26l0.3-3.1c7.4,1.2,14.2,0.8,23.6-1.1C61.1,36,69.9,29.2,69.9,29.2z"/>
<path d="M110.5,42l-0.1-1.6l-1.6,0.3c-7.5,1.3-16.8,0.1-22.2-1.6c-8.9-2.7-15.2-7.1-15.8-7.6l-0.9-0.6L69,31.5
	c-0.7,0.5-7,4.8-15.8,7.6C47.7,40.8,38.5,42,31,40.7l-1.7-0.3L29.2,42c-0.2,2.8-0.8,12.9,0.3,25.7c1.3,14.6,6.3,35.3,23.1,51.1
	c3.9,3.7,9.3,7.5,16.5,11.8l0.8,0.4l0.8-0.4c7.2-4.2,12.6-8.1,16.5-11.8c16.8-15.8,21.9-36.5,23.1-51.1
	C111.4,54.9,110.8,44.8,110.5,42L110.5,42z"/>
<g>
	<path class="st2" d="M30.7,42.1c-0.2,2.3-0.9,12.4,0.3,25.5c1.1,12.9,5.6,34.1,22.6,50.1V40.5C47.5,42.4,38,43.4,30.7,42.1z"/>
	<path class="st2" d="M109.1,42.1c0.2,2.3,0.9,12.4-0.3,25.5c-1.1,12.9-5.6,34.1-22.6,50.1V40.5C92.3,42.4,101.8,43.4,109.1,42.1z"
		/>
</g>
<path class="st3" d="M69.9,32.7c1.3,0.9,7.6,5.1,16.3,7.8v77.2c-4.4,4.1-10.2,8-16.3,11.6c-6.1-3.6-11.9-7.5-16.3-11.6V40.5
	C62.3,37.8,68.6,33.6,69.9,32.7z"/>
<path d="M98.7,59.9l-1.2,0.3c0.6-4.5,3.2-8.1,5.5-11.9c0.8-1.1,1.6-2.1,2.3-3.2c0.1-0.1,0.2-0.2-0.2-0.1c-2.6,1.4-5.1,3.5-7.4,5.5
	c-1.6,1.4-2.9,3.5-4.8,4.6c-1.3-0.5-2.7-0.6-4.2-0.7c-0.2-0.3-0.1-0.7-0.1-1.1c0.1-0.6,0.5-1.2,1.1-1.4c0.1,0.1,0.3,0.2,0.5,0.2
	c0.4,0,0.7-0.3,0.7-0.7s-0.3-0.7-0.7-0.7s-0.7,0.3-0.7,0.7v0.1c-0.9,0.1-1.7,0.3-2.4,1.3c-0.2-0.1-0.6-1.2-0.6-1.2
	c0.2-0.2,0.3-0.4,0.3-0.7c0-0.5-0.4-0.9-0.9-0.9h-0.1c-0.5,0-0.9,0.4-0.9,0.9c0,0.4,0.3,0.8,0.6,0.9v1.3c-0.4-0.2-0.9-0.4-1.4-0.3
	c-0.3,0-0.7,0-1,0.1c-0.1-0.3-0.3-0.5-0.7-0.5s-0.7,0.3-0.7,0.6c0,0.4,0.3,0.7,0.7,0.7c0.3,0,0.6-0.2,0.7-0.6
	c0.2-0.1,0.5,0.1,0.7,0.2c0.6,0.3,1,1,1,1.8c-3,1.6-3,3.6-3,3.6s-1.2,0.7-1.5,1.6c-0.1,0.3-0.9,3.7,6.6,4.1
	c-0.2,0.8-0.9,1.3-1.6,1.7c-0.2-0.5-0.6-1-1.1-1.1c-0.5-0.1-1.1,0-1.4,0.3c-0.4,0.3-0.7,0.9-0.5,1.6c0.3,1.1,2,1.7,3.2,1.6
	c1.4-0.2,2.8-1,3.6-2.3c0.8,0.9,1.2,1.4,2.5,2.7c-2.5,1.1-5.2,2.5-7,4.8c0,0.1-0.1,0.2,0,0.3c2,0.5,4.2,0,6.2-0.4
	c2-0.4,3.9-1.1,5.8-1.6c1.4,2,3.6,3.4,5.6,4.7c0.1,0.1,0.2,0.1,0.3,0c-0.4-4.8-1.8-9-3.8-13.6c0.2-0.5,0.8-0.9,1.3-1.1
	c0.2-0.1,0.7-0.2,1,0c-0.3,0.4-0.2,0.9-0.1,1.3c0.2,0.5,0.6,0.8,1.1,0.8c0.6,0.1,1.1,0,1.4-0.6c0.3-0.6,0.2-1.5-0.2-2.3
	C102.5,60,100.4,59.5,98.7,59.9z"/>
<path class="st0" d="M89.9,56.7c-1.8,0.3-3.7,1.2-5.4,1.8c-0.1-0.2-0.1-0.7-0.3-0.9l0.2-0.1C86.1,57,88.1,56.7,89.9,56.7z"/>
<path class="st0" d="M91.3,62c0.9-0.6,1.9-1.6,3-0.9c1.3,1.1,0.9,3.2,1.4,4.4c0.3,0.8,0.7,1.8,0.9,1.8c0.2,0.1,0.4,0.2,0.7-0.1
	c0.3-0.3,0.1-1.2,0.7-1.3c0.5,0,0.5,0.7,0.4,1.7c0,0.8-0.2,1.8-0.4,2.4c-0.1,0.3-0.3,0.4-0.6,0.4c-0.3,0.1-0.6-0.3-0.8-0.4
	c-0.8-0.7-1.3-1-2.6-1.5c-0.3-0.1-0.1,0.1,0,0.3c0.1,0.1,1,1,1,1.9c0,0.3-0.6,0.3-0.8,0.1c-1.7-1.2-4.4-3.9-6.1-6.3
	c-0.7,0-1.3,0-2.2-0.1c-1.2-0.1-4.2-0.6-5.1-2.5c0-0.2-0.2-0.4,0.6-0.9C83.9,59.5,88.6,60.5,91.3,62z"/>
<path d="M68.6,44h-32l1.1,1.4l2.7,3.6v24.4l-3.5,4.2L35.7,79h16.2l-1.1-1.4l-3.5-4.2V59.5l15,25.1l1.6,2.7V49l3.3-3.6
	C67.2,45.4,68.6,44,68.6,44z M53,45.4l0.6-0.7l0.6,0.7l2.9,3.6v11l-6.7-11.4L53,45.4z"/>
<polygon class="st0" points="66.6,44.9 54.8,44.9 57.9,48.7 57.9,63.1 49.3,48.5 52.3,44.9 38.3,44.9 41.2,48.7 41.2,73.7
	37.5,78.1 50,78.1 46.4,73.7 46.4,56.4 63.1,84.2 63.1,48.7 "/>
<polygon points="51.1,45.4 39.4,45.4 41.8,48.5 41.8,73.9 38.7,77.5 48.8,77.5 45.9,73.9 45.9,54.4 62.5,82.2 62.5,48.5 65.3,45.4
	56,45.4 58.5,48.5 58.5,65.2 48.6,48.5 "/>
<path d="M79.5,98V87.5l4.2-5.3h-9.6c-0.2-0.7-0.6-1.4-1.2-2c-0.9-0.9-2.1-1.4-3.4-1.4c-2.6,0-4.8,2.2-4.8,4.8c0,1.3,0.5,2.5,1.4,3.4
	c0.9,0.9,2.1,1.4,3.4,1.4h2.1V97c-7.1,0-9.3-2.6-10.2-3.8L61.3,93c-1.6-1.9-2.9-6.5-2.2-10.2c0.9-4.9,3.3-7.9,7.4-9.1
	c4.1-1.1,7.1,0.8,8.1,1.5l1.2,5.3l7.8-11l-5.2,0.3c-5.8-3.8-11-3.3-14.4-2.6c-4.7,0.9-13.8,7.2-13.8,17.5c0,5,1.9,9.6,5.4,13.1
	c3.3,3.3,7.7,5.2,12.1,5.2h15.7C83.4,103,79.5,98,79.5,98z"/>
<path class="st0" d="M78.6,98.3V87.2l3.3-4.1h-8.5c-0.1-0.8-0.5-1.6-1.1-2.2c-0.7-0.7-1.7-1.2-2.8-1.2c-2.2,0-3.9,1.8-3.9,3.9
	c0,1.1,0.4,2,1.2,2.8c0.7,0.7,1.7,1.2,2.8,1.2h0.1h2.8v10.3c-8.2,0.2-10.7-2.8-11.8-4.1l-0.1-0.2c-1.7-2.1-3.1-6.8-2.4-10.9
	c0.9-5.3,3.6-8.5,8-9.7c4.9-1.4,8.4,1.3,9.1,1.9l0.8,3.7l5.7-8l-3.7,0.2c-5.6-3.8-10.7-3.3-14-2.7c-4.4,0.9-13.2,6.8-13.2,16.6
	c0,4.7,1.8,9.2,5.1,12.5c3.1,3.1,7.3,4.9,11.5,4.9h14L78.6,98.3L78.6,98.3z"/>
<path d="M78.1,87.1l2.6-3.4h-7.9c0-1.9-1.5-3.4-3.4-3.4S66,81.8,66,83.7c0,1.9,1.5,3.4,3.4,3.4h0.4h3.1v11.4
	C63.6,98.9,61,95.3,60,94.1c-1.9-2.3-3.2-7.3-2.5-11.4c0.7-4.1,2.7-8.6,8.4-10.2c5.8-1.6,9.7,2.1,9.7,2.1l0.6,2.6l4.3-6l-2.7,0.1
	C72.2,67.5,67,68,64,68.6c-3.8,0.8-12.7,6.3-12.7,16.1c0,9.7,7.9,16.8,16.1,16.8h12.9l-2.2-3C78.1,98.5,78.1,87.1,78.1,87.1z"/>
<path d="M86.1,114.6l-3.2,4.4h-9.5v-9.1h5.3l4.5,3.6v-13.1l-4.5,3.2h-5.4v-5.7h9.2l2.8,3.9l6.5-9.7H61.4l4,4.9v6.7
	c-1.4,0.5-4,1.7-5.1,4c-1.2,2.5-0.6,6.2-0.6,6.2s1.8-3.5,5.7-4.1v9.8l-5.7,5.2H92L86.1,114.6z"/>
<path class="st0" d="M86,116.1l-2.7,3.7H72.6V109h6.5l3.4,2.7v-9.6l-3.4,2.4h-6.5v-7.4h10.5l2.3,3.2l4.9-7.3H63.2l3,3.7v7.7
	c-6.6,1.9-5.9,7.3-5.9,7.3s2.2-2.5,5.9-2.7v11.1l-4.3,3.9h28.6C90.5,124,86,116.1,86,116.1z"/>
<path d="M89.2,93.6H64.4l2.4,2.9v8.3c0,0-5.2,0.9-5.8,5.5c0,0,2.3-2,5.8-1.9v12l-3.4,3.1h26.2l-3.6-6.3l-2.3,3.2H72.1v-11.9h7.3
	l2.6,2.1v-7.3l-2.6,1.9h-7.3v-8.5h11.3l2,2.8C85.4,99.5,89.2,93.6,89.2,93.6z"/>
</svg>
