<?xml version="1.0" encoding="UTF-8" standalone="no"?>
<!DOCTYPE svg PUBLIC "-//W3C//DTD SVG 1.1//EN" "http://www.w3.org/Graphics/SVG/1.1/DTD/svg11.dtd">
<svg width="80px" height="48px" version="1.1" xmlns="http://www.w3.org/2000/svg" xmlns:xlink="http://www.w3.org/1999/xlink" xml:space="preserve" xmlns:serif="http://www.serif.com/" style="fill-rule:evenodd;clip-rule:evenodd;stroke-linejoin:round;stroke-miterlimit:2;">
    <g transform="matrix(1,0,0,1,-550,-206)">
        <g transform="matrix(1.89531,0,0,1.67828,617.872,21.8177)">
            <g transform="matrix(0.8,0,0,0.8,-2.94114,24.8089)">
                <g transform="matrix(0.396705,0,0,0.595847,-255.307,-13)">
                    <path d="M606.5,200C643.202,200 673,213.443 673,230C673,246.557 643.202,260 606.5,260C569.798,260 540,246.557 540,230C540,213.443 569.798,200 606.5,200ZM606.5,207.5C634.027,207.5 656.375,217.582 656.375,230C656.375,242.418 634.027,252.5 606.5,252.5C578.973,252.5 556.625,242.418 556.625,230C556.625,217.582 578.973,207.5 606.5,207.5Z" style="fill:rgb(0,52,255);fill-opacity:0.6;"/>
                </g>
                <g transform="matrix(0.517272,0,0,0.616393,-320.413,-17.7257)">
                    <ellipse cx="591" cy="230" rx="51" ry="29" style="fill:rgb(0,52,255);fill-opacity:0.3;"/>
                </g>
            </g>
        </g>
    </g>
</svg>
